<svg width="40" height="40" viewBox="0 0 40 40" fill="none" xmlns="http://www.w3.org/2000/svg">
<path d="M17.0041 3.14159C18.2216 0.645698 21.7784 0.64569 22.9959 3.14158L37.6611 33.2052C38.7412 35.4195 37.1289 38 34.6652 38H5.33479C2.87111 38 1.25876 35.4195 2.3389 33.2053L17.0041 3.14159Z" fill="#FFB024"/>
<path fill-rule="evenodd" clip-rule="evenodd" d="M20 10.9996C19.0796 10.9996 18.3334 11.7458 18.3334 12.6663V23.333C18.3334 24.2534 19.0796 24.9996 20 24.9996C20.9205 24.9996 21.6667 24.2534 21.6667 23.333V12.6663C21.6667 11.7458 20.9205 10.9996 20 10.9996ZM20 33.4995C21.3807 33.4995 22.5 32.3802 22.5 30.9995C22.5 29.6187 21.3807 28.4995 20 28.4995C18.6193 28.4995 17.5 29.6187 17.5 30.9995C17.5 32.3802 18.6193 33.4995 20 33.4995Z" fill="white"/>
</svg>
