<svg width="16" height="8" viewBox="0 0 16 8" fill="none" xmlns="http://www.w3.org/2000/svg">
<path d="M10.1667 6.66667C10.4429 6.66667 10.6667 6.89052 10.6667 7.16667C10.6667 7.44281 10.4429 7.66667 10.1667 7.66667H5.83341C5.55727 7.66667 5.33341 7.44281 5.33341 7.16667C5.33341 6.89052 5.55727 6.66667 5.83341 6.66667H10.1667ZM12.1667 3.33333C12.4429 3.33333 12.6667 3.55719 12.6667 3.83333C12.6667 4.10948 12.4429 4.33333 12.1667 4.33333H3.83341C3.55727 4.33333 3.33341 4.10948 3.33341 3.83333C3.33341 3.55719 3.55727 3.33333 3.83341 3.33333H12.1667ZM14.8334 0C15.1096 0 15.3334 0.223858 15.3334 0.5C15.3334 0.776142 15.1096 1 14.8334 1H1.16675C0.890606 1 0.666748 0.776142 0.666748 0.5C0.666748 0.223858 0.890606 0 1.16675 0H14.8334Z" fill="#9BA4AB"/>
</svg>

