<svg width="118" height="88" viewBox="0 0 118 88" fill="none" xmlns="http://www.w3.org/2000/svg">
<rect y="49" width="118" height="39" rx="2.4" fill="white"/>
<path opacity="0.496261" d="M44 65C44 63.8954 44.8954 63 46 63H106C107.105 63 108 63.8954 108 65C108 66.1046 107.105 67 106 67H46C44.8954 67 44 66.1046 44 65Z" fill="#DDE3E7"/>
<rect width="118" height="39" rx="2.4" fill="white"/>
<path d="M22.5 33.4314C30.5081 33.4314 37 27.0668 37 19.2157C37 11.3646 30.5081 5 22.5 5C14.4919 5 8 11.3646 8 19.2157C8 27.0668 14.4919 33.4314 22.5 33.4314Z" fill="#EEF1F3"/>
<path d="M22.5616 26.6079C26.7902 26.6079 30.6209 22.6774 30.6209 18.1358C30.6209 13.5941 27.1435 10.0742 22.9204 10.3126C21.5315 10.391 20.3559 10.9225 18.5446 10.4997C17.2311 10.193 16.2039 8.98047 15.6143 8.98047C15.1207 8.98047 14.9018 9.77641 14.9746 11.0273C15.3691 13.0104 16.6696 13.1581 16.3918 13.5799C15.5769 14.8172 15.2639 16.4446 15.2639 18.1358C15.2639 22.6774 18.333 26.6079 22.5616 26.6079Z" fill="#C7CED5"/>
<path d="M12.0605 28.9593C14.1482 28.0712 20.1043 26.6074 22.4395 26.6074C24.7747 26.6074 32.3333 28.1032 33.5205 28.9593C32.3499 30.3035 28.6232 33.9996 22.4395 33.9996C16.4243 33.9996 13.3954 30.3035 12.0605 28.9593Z" fill="#DDE3E7"/>
<path d="M17.2802 18.109C17.2802 17.9692 17.4259 17.9289 17.5011 17.925C23.8703 17.595 27.1673 17.4617 27.3922 17.5251C27.7336 17.6213 27.6219 18.42 27.6219 18.42L27.3922 21.1018C27.3922 21.1018 27.9063 21.1313 28.14 21.3189C28.3738 21.5065 28.3738 22.0387 27.9807 22.0992C27.5877 22.1597 27.1188 22.0992 27.0735 22.4169C27.0281 22.7347 26.8088 25.5022 24.9495 26.1872C23.0902 26.8722 23.1832 27.0572 23.0946 28.0486C23.0059 29.0399 23.1458 29.4509 22.4614 29.4509C21.7771 29.4509 21.6267 29.0082 21.6267 28.5284C21.6267 28.0486 21.7759 26.9939 20.9212 26.5906C20.0665 26.1872 18.0547 24.9301 17.7348 23.6735C17.5261 22.8536 17.3746 21.3877 17.2802 18.5092C17.2782 18.4466 17.2802 18.2487 17.2802 18.109Z" fill="#F5F7F9"/>
<path opacity="0.496261" d="M44 26C44 24.8954 44.8954 24 46 24H85C86.1046 24 87 24.8954 87 26V26C87 27.1046 86.1046 28 85 28H46C44.8954 28 44 27.1046 44 26V26Z" fill="#DDE3E7"/>
<path opacity="0.496261" d="M44 16C44 14.8954 44.8954 14 46 14H106C107.105 14 108 14.8954 108 16V16C108 17.1046 107.105 18 106 18H46C44.8954 18 44 17.1046 44 16V16Z" fill="#DDE3E7"/>
<path d="M22.5 82.4314C30.5081 82.4314 37 76.0668 37 68.2157C37 60.3646 30.5081 54 22.5 54C14.4919 54 8 60.3646 8 68.2157C8 76.0668 14.4919 82.4314 22.5 82.4314Z" fill="#EEF1F3"/>
<path d="M22.5616 75.6079C26.7902 75.6079 30.6209 71.6774 30.6209 67.1358C30.6209 62.5941 27.1435 59.0742 22.9204 59.3126C21.5315 59.391 20.3559 59.9225 18.5446 59.4997C17.2311 59.193 16.2039 57.9805 15.6143 57.9805C15.1207 57.9805 14.9018 58.7764 14.9746 60.0273C15.3691 62.0104 16.6696 62.1581 16.3918 62.5799C15.5769 63.8172 15.2639 65.4446 15.2639 67.1358C15.2639 71.6774 18.333 75.6079 22.5616 75.6079Z" fill="#C7CED5"/>
<path d="M12.0605 77.9593C14.1482 77.0712 20.1043 75.6074 22.4395 75.6074C24.7747 75.6074 32.3333 77.1032 33.5205 77.9593C32.3499 79.3035 28.6232 82.9996 22.4395 82.9996C16.4243 82.9996 13.3954 79.3035 12.0605 77.9593Z" fill="#DDE3E7"/>
<path d="M17.2802 67.109C17.2802 66.9692 17.4259 66.9289 17.5011 66.925C23.8703 66.595 27.1673 66.4617 27.3922 66.5251C27.7336 66.6213 27.6219 67.42 27.6219 67.42L27.3922 70.1018C27.3922 70.1018 27.9063 70.1313 28.14 70.3189C28.3738 70.5065 28.3738 71.0387 27.9807 71.0992C27.5877 71.1597 27.1188 71.0992 27.0735 71.4169C27.0281 71.7347 26.8088 74.5022 24.9495 75.1872C23.0902 75.8722 23.1832 76.0572 23.0946 77.0486C23.0059 78.0399 23.1458 78.4509 22.4614 78.4509C21.7771 78.4509 21.6267 78.0082 21.6267 77.5284C21.6267 77.0486 21.7759 75.9939 20.9212 75.5906C20.0665 75.1872 18.0547 73.9301 17.7348 72.6735C17.5261 71.8536 17.3746 70.3877 17.2802 67.5092C17.2782 67.4466 17.2802 67.2487 17.2802 67.109Z" fill="#F5F7F9"/>
<path opacity="0.496261" d="M44 74C44 72.8954 44.8954 72 46 72H85C86.1046 72 87 72.8954 87 74C87 75.1046 86.1046 76 85 76H46C44.8954 76 44 75.1046 44 74Z" fill="#DDE3E7"/>
</svg>
