<svg width="120" height="57" viewBox="0 0 120 57" fill="none" xmlns="http://www.w3.org/2000/svg">
<g filter="url(#filter0_i)">
<path fill-rule="evenodd" clip-rule="evenodd" d="M60 57C93.1371 57 120 52.9706 120 48C120 43.0294 93.1371 39 60 39C26.8629 39 0 43.0294 0 48C0 52.9706 26.8629 57 60 57Z" fill="#DDE3E7"/>
</g>
<mask id="mask0" style="mask-type:alpha" maskUnits="userSpaceOnUse" x="0" y="39" width="120" height="18">
<path fill-rule="evenodd" clip-rule="evenodd" d="M60 57C93.1371 57 120 52.9706 120 48C120 43.0294 93.1371 39 60 39C26.8629 39 0 43.0294 0 48C0 52.9706 26.8629 57 60 57Z" fill="white"/>
</mask>
<g mask="url(#mask0)">
<g filter="url(#filter1_i)">
<path fill-rule="evenodd" clip-rule="evenodd" d="M60 61C93.1371 61 120 56.9706 120 52C120 47.0294 93.1371 43 60 43C26.8629 43 0 47.0294 0 52C0 56.9706 26.8629 61 60 61Z" fill="#C7CFD5"/>
</g>
<g filter="url(#filter2_f)">
<path fill-rule="evenodd" clip-rule="evenodd" d="M60 58C93.1371 58 120 57.3284 120 56.5C120 55.6716 93.1371 55 60 55C26.8629 55 0 55.6716 0 56.5C0 57.3284 26.8629 58 60 58Z" fill="#C7CFD5" fill-opacity="0.16"/>
</g>
<rect x="25" y="42" width="70" height="17" rx="2.4" fill="#F5F7F9"/>
<rect x="28.8965" y="45.8569" width="46.2266" height="2.42857" rx="1.2" fill="#DDE3E7"/>
<rect x="28.8965" y="49.8569" width="28.1379" height="2.42857" rx="1.2" fill="#DDE3E7"/>
</g>
<rect x="25" width="70" height="17" rx="2.4" fill="#F5F7F9"/>
<rect x="28.8965" y="3.85693" width="46.2266" height="2.42857" rx="1.2" fill="#DDE3E7"/>
<rect x="28.8965" y="7.85693" width="28.1379" height="2.42857" rx="1.2" fill="#DDE3E7"/>
<rect x="25" y="21" width="70" height="17" rx="2.4" fill="#F5F7F9"/>
<rect x="28.8965" y="24.8569" width="46.2266" height="2.42857" rx="1.2" fill="#DDE3E7"/>
<rect x="28.8965" y="28.8569" width="28.1379" height="2.42857" rx="1.2" fill="#DDE3E7"/>
<defs>
<filter id="filter0_i" x="0" y="37" width="120" height="20" filterUnits="userSpaceOnUse" color-interpolation-filters="sRGB">
<feFlood flood-opacity="0" result="BackgroundImageFix"/>
<feBlend mode="normal" in="SourceGraphic" in2="BackgroundImageFix" result="shape"/>
<feColorMatrix in="SourceAlpha" type="matrix" values="0 0 0 0 0 0 0 0 0 0 0 0 0 0 0 0 0 0 127 0" result="hardAlpha"/>
<feOffset dy="-2"/>
<feGaussianBlur stdDeviation="1.5"/>
<feComposite in2="hardAlpha" operator="arithmetic" k2="-1" k3="1"/>
<feColorMatrix type="matrix" values="0 0 0 0 0.781084 0 0 0 0 0.81176 0 0 0 0 0.835619 0 0 0 1 0"/>
<feBlend mode="normal" in2="shape" result="effect1_innerShadow"/>
</filter>
<filter id="filter1_i" x="0" y="41" width="120" height="20" filterUnits="userSpaceOnUse" color-interpolation-filters="sRGB">
<feFlood flood-opacity="0" result="BackgroundImageFix"/>
<feBlend mode="normal" in="SourceGraphic" in2="BackgroundImageFix" result="shape"/>
<feColorMatrix in="SourceAlpha" type="matrix" values="0 0 0 0 0 0 0 0 0 0 0 0 0 0 0 0 0 0 127 0" result="hardAlpha"/>
<feOffset dy="-2"/>
<feGaussianBlur stdDeviation="1.5"/>
<feComposite in2="hardAlpha" operator="arithmetic" k2="-1" k3="1"/>
<feColorMatrix type="matrix" values="0 0 0 0 0 0 0 0 0 0 0 0 0 0 0 0 0 0 0.5 0"/>
<feBlend mode="normal" in2="shape" result="effect1_innerShadow"/>
</filter>
<filter id="filter2_f" x="-2.71828" y="52.2817" width="125.437" height="8.43656" filterUnits="userSpaceOnUse" color-interpolation-filters="sRGB">
<feFlood flood-opacity="0" result="BackgroundImageFix"/>
<feBlend mode="normal" in="SourceGraphic" in2="BackgroundImageFix" result="shape"/>
<feGaussianBlur stdDeviation="1.35914" result="effect1_foregroundBlur"/>
</filter>
</defs>
</svg>
