<svg width="17" height="16" viewBox="0 0 17 16" fill="none" xmlns="http://www.w3.org/2000/svg">
<g clip-path="url(#clip0_29318_51108)">
<path d="M1.16667 2.66663V6.66663H5.16667" stroke="#9BA4AB" stroke-width="1.3" stroke-linecap="round" stroke-linejoin="round"/>
<path d="M15.8333 13.3334V9.33337H11.8333" stroke="#9BA4AB" stroke-width="1.3" stroke-linecap="round" stroke-linejoin="round"/>
<path d="M14.16 6.00001C13.8219 5.04453 13.2472 4.19028 12.4897 3.51696C11.7321 2.84363 10.8164 2.37319 9.82781 2.14952C8.83926 1.92584 7.81017 1.95624 6.83654 2.23786C5.86292 2.51948 4.9765 3.04315 4.26 3.76001L1.16667 6.66668M15.8333 9.33334L12.74 12.24C12.0235 12.9569 11.1371 13.4805 10.1635 13.7622C9.18984 14.0438 8.16074 14.0742 7.17219 13.8505C6.18365 13.6268 5.26787 13.1564 4.51031 12.4831C3.75276 11.8097 3.17811 10.9555 2.84 10" stroke="#9BA4AB" stroke-width="1.3" stroke-linecap="round" stroke-linejoin="round"/>
</g>
<defs>
<clipPath id="clip0_29318_51108">
<rect width="16" height="16" fill="white" transform="translate(0.5)"/>
</clipPath>
</defs>
</svg>
