<svg width="20" height="20" viewBox="0 0 20 20" fill="none" xmlns="http://www.w3.org/2000/svg">
<path fill-rule="evenodd" clip-rule="evenodd" d="M0.208252 15V2.50001C0.208252 1.23436 1.23427 0.208344 2.49992 0.208344H8.33325C9.5989 0.208344 10.6249 1.23436 10.6249 2.50001V15C10.6249 16.2657 9.5989 17.2917 8.33325 17.2917H2.49992C1.23427 17.2917 0.208252 16.2657 0.208252 15ZM1.45825 13.9583V15C1.45825 15.5753 1.92462 16.0417 2.49992 16.0417H8.33325C8.90855 16.0417 9.37492 15.5753 9.37492 15V13.9583H1.45825ZM1.45825 12.7083H9.37492V2.50001C9.37492 1.92471 8.90855 1.45834 8.33325 1.45834H2.49992C1.92462 1.45834 1.45825 1.92471 1.45825 2.50001V12.7083ZM13.7886 5.59175C14.0336 5.7782 14.3848 5.75956 14.6085 5.53582L14.6645 5.47182C14.8509 5.22684 14.8323 4.87567 14.6085 4.65194L13.9149 3.95834H14.9999L15.1536 3.96263C16.5779 4.04231 17.7083 5.22248 17.7083 6.66668V7.50001L17.714 7.58482C17.7553 7.88988 18.0168 8.12501 18.3333 8.12501C18.6784 8.12501 18.9583 7.84519 18.9583 7.50001V6.66668L18.9542 6.48549C18.8595 4.38346 17.1253 2.70834 14.9999 2.70834H13.9007L14.6085 2.00029L14.6645 1.93628C14.8509 1.69131 14.8323 1.34014 14.6085 1.1164C14.3644 0.872324 13.9687 0.872324 13.7246 1.1164L11.9569 2.88417L11.9009 2.94817C11.7145 3.19315 11.7331 3.54431 11.9569 3.76805L13.7246 5.53582L13.7886 5.59175ZM4.37492 15C4.37492 14.6836 4.61005 14.4221 4.91511 14.3807L4.99992 14.375H5.83325C6.17843 14.375 6.45825 14.6548 6.45825 15C6.45825 15.3164 6.22312 15.5779 5.91806 15.6193L5.83325 15.625H4.99992C4.65474 15.625 4.37492 15.3452 4.37492 15ZM17.6455 9.37924C18.8462 9.45139 19.7976 10.448 19.7976 11.6667V17.5001L19.7934 17.6397C19.7213 18.8403 18.7247 19.7917 17.5059 19.7917H5.00594L4.84242 19.7859C4.08475 19.7322 3.40815 19.3072 3.02728 18.6567C2.85288 18.3589 2.95297 17.976 3.25085 17.8016C3.54872 17.6272 3.93158 17.7273 4.10599 18.0252L4.17352 18.1266C4.36787 18.3846 4.67298 18.5417 5.00594 18.5417H17.5059L17.6124 18.5363C18.1377 18.483 18.5476 18.0394 18.5476 17.5001V11.6667L18.5422 11.5602C18.4889 11.035 18.0453 10.6251 17.5059 10.6251H11.6726L11.5878 10.6194C11.2827 10.578 11.0476 10.3165 11.0476 10.0001C11.0476 9.65488 11.3274 9.37506 11.6726 9.37506H17.5059L17.6455 9.37924Z" fill="#9BA4AB"/>
</svg>
