<svg width="150" height="150" viewBox="0 0 150 150" fill="none" xmlns="http://www.w3.org/2000/svg">
<mask id="mask0" style="mask-type:alpha" maskUnits="userSpaceOnUse" x="0" y="0" width="150" height="150">
<rect width="150" height="150" fill="white"/>
</mask>
<g mask="url(#mask0)">
<path fill-rule="evenodd" clip-rule="evenodd" d="M121.224 39.5116C120.98 39.6163 120.869 39.9019 120.976 40.1495C121.085 40.4032 121.191 40.6611 121.291 40.923C121.388 41.1747 121.667 41.3021 121.915 41.2075C122.162 41.113 122.285 40.8324 122.188 40.5807C122.083 40.3065 121.972 40.0363 121.858 39.7703C121.751 39.5227 121.467 39.4069 121.224 39.5116ZM122.621 43.5483C122.362 43.6056 122.201 43.8651 122.261 44.1277C122.324 44.3989 122.382 44.6724 122.436 44.948C122.487 45.2123 122.741 45.387 123.002 45.3382C123.262 45.2893 123.432 45.0354 123.38 44.771C123.324 44.4852 123.264 44.2014 123.199 43.9199C123.139 43.6573 122.88 43.4909 122.621 43.5483ZM122.883 48.3025C122.863 48.0342 123.062 47.8033 123.327 47.7869C123.592 47.7705 123.823 47.9747 123.843 48.243C123.864 48.5309 123.881 48.8192 123.894 49.1077C123.906 49.3764 123.701 49.6012 123.435 49.6099C123.17 49.6186 122.945 49.4079 122.933 49.1392C122.92 48.8601 122.903 48.5811 122.883 48.3025ZM123.407 52.0352C123.142 52.0128 122.912 52.2118 122.893 52.4797C122.874 52.7593 122.85 53.0369 122.823 53.3122C122.796 53.5793 122.989 53.8206 123.253 53.8512C123.518 53.8817 123.754 53.69 123.781 53.4229C123.809 53.1377 123.833 52.8502 123.854 52.5608C123.872 52.2929 123.672 52.0576 123.407 52.0352ZM122.272 56.6054C122.335 56.3451 122.596 56.1885 122.854 56.2556C123.112 56.3228 123.271 56.5882 123.208 56.8485C123.139 57.1345 123.065 57.4146 122.986 57.6885C122.912 57.9458 122.646 58.0912 122.39 58.0133C122.135 57.9353 121.987 57.6636 122.061 57.4063C122.136 57.1455 122.206 56.8783 122.272 56.6054ZM121.493 60.2643C121.262 60.1289 120.968 60.2074 120.837 60.4397C120.701 60.6814 120.56 60.9084 120.414 61.1198C120.263 61.339 120.318 61.6429 120.537 61.7985C120.756 61.9541 121.056 61.9026 121.207 61.6834C121.369 61.4478 121.525 61.1964 121.675 60.93C121.806 60.6977 121.725 60.3997 121.493 60.2643ZM118 63.1847C118.233 63.0584 118.526 63.1483 118.654 63.3856C118.782 63.6229 118.697 63.9177 118.464 64.044C118.184 64.1956 117.918 64.3241 117.666 64.4303C117.421 64.5329 117.138 64.4147 117.034 64.1663C116.929 63.9178 117.042 63.6332 117.286 63.5305C117.509 63.4369 117.747 63.3218 118 63.1847ZM114.686 63.7006C114.932 63.6024 115.05 63.3199 114.949 63.0696C114.867 62.8647 114.806 62.6267 114.759 62.3469C114.715 62.0813 114.466 61.8997 114.204 61.9412C113.942 61.9828 113.766 62.2318 113.81 62.4974C113.868 62.8419 113.946 63.1459 114.058 63.4254C114.158 63.6757 114.439 63.7989 114.686 63.7006ZM115.786 59.708C115.595 59.8921 115.29 59.8825 115.105 59.6866C114.921 59.4907 114.926 59.1826 115.118 58.9985C115.326 58.7978 115.558 58.6043 115.812 58.4186C116.026 58.2622 116.328 58.3127 116.485 58.5314C116.643 58.75 116.597 59.0541 116.382 59.2105C116.162 59.3714 115.963 59.5375 115.786 59.708ZM118.758 57.5744C118.772 57.843 118.999 58.052 119.264 58.0412C119.517 58.031 119.767 58.0457 120.009 58.0856C120.272 58.129 120.517 57.9492 120.556 57.6838C120.596 57.4185 120.414 57.1683 120.152 57.1248C119.845 57.0742 119.53 57.0556 119.213 57.0685C118.947 57.0793 118.743 57.3057 118.758 57.5744ZM122.216 59.8529C122.118 59.6016 122.239 59.3204 122.486 59.2247C122.734 59.129 123.013 59.255 123.111 59.5063C123.222 59.791 123.307 60.097 123.365 60.4234C123.412 60.6887 123.237 60.9393 122.976 60.9832C122.714 61.0271 122.464 60.8476 122.417 60.5824C122.37 60.319 122.303 60.0759 122.216 59.8529ZM122.752 63.4521C122.495 63.3802 122.232 63.5318 122.164 63.7909C122.098 64.0458 122.021 64.3081 121.933 64.5778C121.851 64.8323 121.989 65.1088 122.242 65.1955C122.495 65.2822 122.766 65.1462 122.849 64.8917C122.942 64.6046 123.024 64.3245 123.095 64.0513C123.163 63.7923 123.009 63.524 122.752 63.4521ZM120.573 67.5563C120.711 67.3283 121.007 67.2587 121.235 67.401C121.462 67.5433 121.535 67.8436 121.397 68.0716C121.25 68.3142 121.095 68.5578 120.931 68.8026C120.783 69.0239 120.484 69.0795 120.264 68.9268C120.043 68.7741 119.984 68.471 120.132 68.2497C120.288 68.0171 120.435 67.786 120.573 67.5563ZM118.77 70.8219C118.572 70.64 118.268 70.653 118.09 70.8509C117.909 71.0533 117.722 71.2567 117.529 71.461C117.346 71.6541 117.355 71.9623 117.549 72.1493C117.742 72.3364 118.047 72.3315 118.229 72.1384C118.428 71.928 118.621 71.7184 118.808 71.5096C118.985 71.3117 118.968 71.0038 118.77 70.8219ZM115.127 73.7832C115.325 73.6065 115.63 73.6275 115.807 73.8301C115.984 74.0327 115.968 74.3402 115.77 74.5169C115.561 74.7029 115.348 74.8895 115.131 75.0768C114.93 75.25 114.626 75.2239 114.452 75.0183C114.278 74.8128 114.3 74.5057 114.501 74.3324C114.714 74.1487 114.923 73.9656 115.127 73.7832ZM112.57 76.5435C112.408 76.3286 112.105 76.2853 111.895 76.4467C111.676 76.6143 111.455 76.7824 111.229 76.951C111.017 77.11 110.975 77.4146 111.135 77.6314C111.295 77.8482 111.597 77.8951 111.809 77.7361C112.037 77.5653 112.262 77.3949 112.483 77.2251C112.694 77.0636 112.733 76.7585 112.57 76.5435ZM108.537 78.8802C108.755 78.73 109.055 78.789 109.206 79.0119C109.358 79.2349 109.304 79.5374 109.085 79.6876C108.855 79.8456 108.623 80.004 108.387 80.1628C108.167 80.3111 107.868 80.2495 107.718 80.0253C107.569 79.8011 107.626 79.4991 107.846 79.3508C108.079 79.1935 108.309 79.0367 108.537 78.8802ZM105.702 81.3386C105.559 81.1099 105.261 81.0391 105.037 81.1805C104.803 81.3281 104.566 81.476 104.328 81.6243C104.102 81.7642 104.034 82.0637 104.176 82.2933C104.317 82.5229 104.614 82.5956 104.839 82.4558C105.08 82.3064 105.318 82.1573 105.554 82.0086C105.778 81.8672 105.844 81.5672 105.702 81.3386Z" fill="#C6CED4"/>
<path d="M19.042 126.667L82.1295 105.128H99.7797L97.0175 106.87L110.521 105.128H131.644L119.682 111.765L120.872 115.898L32.6779 124.502L29.3233 125.475L26.5268 125.639L24.384 126.308H21.9843L21.4536 126.667H19.042Z" fill="#ECF0F3"/>
<path d="M80.2783 40.8671L84.9373 47.241L35.9485 110.931L27.8447 117.367L26.5272 120.987L24.9682 122.072L24.2788 123.966L22.8368 123.442L21.0761 126.215L19.1809 126.013L20.9968 125.681L22.2512 122.629L23.1441 122.597L23.5263 121.547L24.5353 120.262L25.8528 116.642L33.9275 108.414L40.6101 94.4833L80.2783 40.8671Z" fill="#ECF0F3"/>
<path fill-rule="evenodd" clip-rule="evenodd" d="M49.0112 103.862L99.1978 61.0828L94.0074 50.3102L45.6645 100.374L45.6405 100.349L37.298 111.956L37.3124 111.997L37.2883 111.933L28.0532 117.792L27.9157 117.703L26.5464 121.465L25.689 122.021L25.679 121.992L24.3825 124.228L24.3815 124.238L22.9804 123.728L22.2957 124.838L22.3165 124.847L21.2701 126.482L22.6534 125.005L24.2406 125.746L24.2404 125.748L25.9513 122.78L25.9502 122.777L26.924 122.117L26.9142 122.097L26.9308 122.123L28.7693 118.279L38.1881 114.458L38.1938 114.474L38.226 114.443L38.2353 114.439L38.2338 114.435L49.0588 103.912L49.0112 103.862Z" fill="#DDE3E7"/>
<path d="M89.5256 41.3655L103.316 40.411L45.7206 100.505L37.4947 112.037L28.1872 117.674L26.6668 121.423L25.6604 122.127L24.2532 124.484L22.9325 124.004L21.2609 126.491L19.1655 126.056L21.0253 125.974L22.5418 123.243L23.9588 123.548L24.5134 121.71L25.5748 120.853L27.1864 117.309L35.406 110.467L43.5153 98.692L89.5256 41.3655Z" fill="white"/>
<path d="M20.8409 126.068L22.1222 122.548L22.8149 122.597L22.9244 121.419L23.7202 120.11L24.9047 115.978L32.3094 108.037L37.0318 95.0623L67.7314 41.3056L80.2469 40.8558L41.449 96.67L34.7358 108.92L26.6282 116.606L24.7353 120.602L23.7435 121.717L23.4007 123.013L22.364 122.959L20.8409 126.068Z" fill="white"/>
<path d="M64.353 63.7139L67.7339 68.5196L85.1722 47.0621L80.2816 40.8899L64.353 63.7139Z" fill="#DDE3E7"/>
<path d="M89.5014 41.1983L71.2611 64.1892L103.389 40.3422L89.5014 41.1983Z" fill="#EEF1F3"/>
<path d="M67.7279 41.3086L64.4006 63.6851L80.293 40.8726L67.7279 41.3086Z" fill="#DDE3E7" fill-opacity="0.5"/>
<path d="M21.9487 119.119C21.8482 118.91 21.9367 118.659 22.1462 118.558C22.3557 118.458 22.607 118.546 22.7075 118.756L24.7074 122.921C24.8079 123.13 24.7194 123.381 24.5099 123.481C24.3004 123.581 24.0491 123.493 23.9486 123.284L21.9487 119.119Z" fill="#DDE3E7"/>
<path d="M19.7376 125.256C19.5079 125.221 19.3504 125.006 19.3858 124.777C19.4212 124.548 19.6361 124.391 19.8658 124.426L23.4055 124.971C23.6352 125.006 23.7927 125.22 23.7573 125.45C23.7219 125.679 23.507 125.836 23.2773 125.801L19.7376 125.256Z" fill="#DDE3E7"/>
</g>
</svg>
