<svg xmlns="http://www.w3.org/2000/svg" viewBox="0 0 99.84 73.21"><defs><linearGradient id="linear-gradient" x1=".38" y1="36.65" x2="99.84" y2="36.65" gradientUnits="userSpaceOnUse"><stop offset="0" stop-color="#fff"/><stop offset=".1" stop-color="#fbfbfb" stop-opacity=".98"/><stop offset=".25" stop-color="#efefef" stop-opacity=".93"/><stop offset=".45" stop-color="#dcdcdc" stop-opacity=".84"/><stop offset=".53" stop-color="#d2d2d2" stop-opacity=".8"/><stop offset=".6" stop-color="#c5c5c6" stop-opacity=".82"/><stop offset=".7" stop-color="#bebfc0" stop-opacity=".83"/><stop offset=".91" stop-color="#fff"/></linearGradient><style>.cls-AU{fill:#0d46b7}.cls-3{fill:#fcf5ff}.cls-4{fill:#f42525}.cls-5{fill:#fff}</style></defs><g style="isolation:isolate"><g id="Layer_2" data-name="Layer 2"><g id="Capa_1" data-name="Capa 1"><path class="cls-AU" d="M99.84 5.4v62.4C66.56 49.08 33.28 86.52 0 67.8V5.4c33.28 18.72 66.56-18.72 99.84 0z"/><path class="cls-AU" d="M49.27 5.78v30.79c-16.37 4.61-32.74 9-49.12-.1V5.67c16.37 9.14 32.74 4.71 49.12.11z"/><path class="cls-3" d="M49.27 33.37v3.2c-1.7.48-3.4 1-5.11 1.42a144.08 144.08 0 0 1-15.08-6.21L27.56 31c-.59-.3-1.18-.62-1.78-.94l-.6-.33c-.6-.33-1.2-.67-1.81-1l-.67-.4-.57-.33-1.13-.72-.37-.23-.55-.36a79.774 79.774 0 0 1-5.36-3.78c-.8-.61-1.6-1.25-2.41-1.91A95 95 0 0 1 .14 8.88V5.67l.1.12a41.31 41.31 0 0 0 5 2.35 85.94 85.94 0 0 0 15.38 12.49l1.51.94.41.24c.8.48 1.6 1 2.4 1.39l.24.14.93.5 1.45.77.25.12 1.26.64 1.24.6c1.1.52 2.2 1 3.3 1.49.8.35 1.61.7 2.41 1 4.42 1.84 8.83 3.38 13.25 4.91z"/><path class="cls-4" d="M49.27 36.48v.11l-3.29.9a150.89 150.89 0 0 1-16.93-6.86l-1.44-.73h-.07l-1.45-.76-.88-.49c-.54-.29-1.08-.59-1.61-.9l-1.49-.88-.21-.13-.9-.62-.37-.23c-1.35-.86-2.71-1.78-4.06-2.76q-1.2-.87-2.4-1.8A93.84 93.84 0 0 1 .14 7.72V5.6l.1.12a91 91 0 0 0 17.28 16q1.2.84 2.4 1.62l.66.42 1.51.94.57.34c.3.19.61.37.92.55l1.7 1c.75.41 1.5.8 2.24 1.18l.25.14.82.41.44.22c.66.32 1.31.64 2 .94a188.14 188.14 0 0 0 18.24 7z"/><path class="cls-3" d="M49.27 6.39v3.2c-3.74 3.39-7.47 6.77-11.2 10-.8.69-1.61 1.38-2.41 2.05-1.78 1.5-3.57 2.95-5.35 4.35l-1.24.94-1.26.95-.25.18-.56.41-.89.65-.93.65-.59.42c-.82.56-1.64 1.11-2.46 1.64-.5.33-1 .64-1.51 1a53.85 53.85 0 0 1-14.41 6.5 42.53 42.53 0 0 1-6.07-2.85v-2.61a39.4 39.4 0 0 0 14.22-4.06q1.2-.58 2.4-1.23c1.1-.59 2.2-1.22 3.31-1.89l.55-.34.37-.23 1.14-.73.57-.39c.83-.54 1.66-1.11 2.48-1.69l.25-.17c.71-.5 1.42-1 2.13-1.54l.28-.2 1.23-.94c5.35-4.07 10.7-8.74 16-13.56l3.76-1z"/><path class="cls-4" d="M49.14 6.58c-5.35 4.86-10.7 9.7-16 14.05-.81.65-1.61 1.29-2.41 1.91l-1.61 1.25-1.26.94-.25.19c-.74.55-1.49 1.09-2.24 1.62-.56.4-1.13.78-1.7 1.17l-.92.61-.57.37-.11.07-1.4.89-1 .61c-6.12 3.66-12.24 6.16-18.36 6.81l-1.17-.59V35a41 41 0 0 0 16.06-5c.81-.42 1.61-.87 2.41-1.33s1.34-.79 2-1.2l.37-.23.93-.58.21-.15c.5-.31 1-.64 1.49-1 .83-.57 1.66-1.14 2.49-1.74l1.17-.77.29-.21c.51-.37 1-.75 1.51-1.13l.61-.46C35.44 16.75 41.2 11.64 47 6.42l1.71-.48.6-.16v.67z"/><path class="cls-5" d="M49.29 25.06c-16.4 4.61-32.79 9-49.19-.12v-8.45c16.4 9.16 32.79 4.73 49.19.12z"/><path class="cls-4" d="M49.29 23.54C32.89 28.15 16.5 32.59.1 23.42V18c16.4 9.17 32.79 4.73 49.19.12z"/><path d="M27.56 10.62v30.8c-1.81.21-3.62.33-5.43.37V11c1.81 0 3.62-.18 5.43-.38z" style="fill:#cd002a"/><path class="cls-5" d="m27.55 29.91 1.51-.19v11.52a60 60 0 0 1-8.45.56V30.28h1.51v-8.46h-1.51V11a61.5 61.5 0 0 0 8.45-.56v10.83l-1.51.19z"/><path class="cls-4" d="M27.58 10.62v30.8c-1.83.21-3.66.34-5.49.37V11c1.83 0 3.66-.18 5.49-.38z"/><path class="cls-5" d="m25.86 48.95-1.32 4.29-4.08-1.68 2.4 3.88-3.71 2.42 4.33.27-.62 4.69 3.05-3.43 2.99 3.5-.59-4.73 4.27-.36-3.68-2.36 2.4-3.84-4.03 1.66-1.41-4.31zM64.62 23.9l-.61 1.98-1.88-.77 1.11 1.79-1.72 1.12 2 .13-.28 2.16 1.4-1.58 1.39 1.61-.28-2.18 1.98-.17-1.7-1.09 1.11-1.77-1.87.76-.65-1.99zM75.98 11.03l-.61 1.98-1.88-.78 1.11 1.8-1.72 1.12 2 .12-.28 2.17 1.4-1.58 1.39 1.61-.28-2.19 1.98-.16-1.7-1.09 1.11-1.77-1.87.76-.65-1.99zM85.92 20.72l-.61 1.99-1.89-.78 1.11 1.79-1.72 1.12 2 .13-.28 2.17 1.41-1.59 1.38 1.62-.27-2.19 1.97-.17-1.7-1.09 1.11-1.77-1.87.77-.64-2zM75.98 42.65l-.61 1.98-1.88-.77 1.11 1.79-1.72 1.12 2 .13-.28 2.17 1.4-1.59 1.39 1.62-.28-2.19 1.98-.17-1.7-1.09 1.11-1.77-1.87.77-.65-2zM80.57 29.59l.51 1.66h1.65l-1.34 1.03.51 1.66-1.33-1.03-1.34 1.03.51-1.66-1.34-1.03h1.66l.51-1.66z"/><path d="M99.84 26v41.78C66.65 49.17 33.5 86.49.38 67.81V5.49c33.12 18.7 66.27-18.65 99.43 0V26h.03z" style="mix-blend-mode:multiply;fill:url(#linear-gradient)"/></g></g></g></svg>