<svg xmlns="http://www.w3.org/2000/svg" viewBox="0 0 99.47 73.28"><defs><linearGradient id="linear-gradient" x1=".01" y1="36.56" x2="99.47" y2="36.56" gradientUnits="userSpaceOnUse"><stop offset="0" stop-color="#fff"/><stop offset=".1" stop-color="#fbfbfb" stop-opacity=".98"/><stop offset=".25" stop-color="#efefef" stop-opacity=".93"/><stop offset=".45" stop-color="#dcdcdc" stop-opacity=".84"/><stop offset=".53" stop-color="#d2d2d2" stop-opacity=".8"/><stop offset=".6" stop-color="#c5c5c6" stop-opacity=".82"/><stop offset=".7" stop-color="#bebfc0" stop-opacity=".83"/><stop offset=".91" stop-color="#fff"/></linearGradient><style>.cls-CA{fill:#e82525}</style></defs><g style="isolation:isolate"><g id="Layer_2" data-name="Layer 2"><g id="Capa_1" data-name="Capa 1"><path class="cls-CA" d="M99.47 67.88C66.31 49.17 33.16 86.59 0 67.88V5.51c33.16 18.71 66.31-18.71 99.47 0z"/><path d="M74.68 62.59c-16.54 1.15-33.07 9.3-49.61 10.52V10.76C41.61 9.53 58.14 1.39 74.68.24z" style="fill:#fff"/><path class="cls-CA" d="M48.28 47.88v11.06l1.93-.54V47c3.42-.22 6.84-.43 10.26-.51-.43-1.07-.86-2.14-1.28-3.21 3.31-3.93 6.62-7.76 9.93-11.36H66.4q.88-3.53 1.76-7c-1.92.69-3.84 1.45-5.77 2.26-.42-1-.85-1.94-1.28-2.9-1.76 2.18-3.53 4.4-5.29 6.63q.8-6.37 1.6-12.76c-1.23.85-2.42 1.68-3.69 2.55l-4.32-6.31-4.17 9c-1.39-.42-2.78-.85-4.17-1.3q1.05 6.15 2.09 12.28-2.8-2.13-5.62-4.36c-.15 1.21-.31 2.42-.47 3.64-2 0-4 0-5.94-.12q1 3 1.93 6.08c-1 .56-2 1.11-3.05 1.63 3.21 2.41 6.41 4.61 9.62 6.7l-1.44 3.88c3.36-1.2 6.73-2.56 10.09-3.94z"/><path d="M99.47 25.89v41.8C66.29 49.07 33.13 86.39 0 67.72V5.39c33.12 18.71 66.28-18.64 99.43 0v20.5h.04z" style="mix-blend-mode:multiply;fill:url(#linear-gradient)"/></g></g></g></svg>