<svg xmlns="http://www.w3.org/2000/svg" viewBox="0 0 99.46 73.74"><defs><linearGradient id="linear-gradient" y1="36.56" x2="99.46" y2="36.56" gradientUnits="userSpaceOnUse"><stop offset="0" stop-color="#fff"/><stop offset=".1" stop-color="#fbfbfb" stop-opacity=".98"/><stop offset=".25" stop-color="#efefef" stop-opacity=".93"/><stop offset=".45" stop-color="#dcdcdc" stop-opacity=".84"/><stop offset=".53" stop-color="#d2d2d2" stop-opacity=".8"/><stop offset=".6" stop-color="#c5c5c6" stop-opacity=".82"/><stop offset=".7" stop-color="#bebfc0" stop-opacity=".83"/><stop offset=".91" stop-color="#fff"/></linearGradient><style>.cls-3{fill:#fff}</style></defs><g style="isolation:isolate"><g id="Layer_2" data-name="Layer 2"><g id="Capa_1" data-name="Capa 1"><path d="M0 68.35c33.15 18.69 66.3-18.71 99.45 0V5.4C66.31-13.3 33.16 24.1 0 5.41z" style="fill:#e82525"/><path class="cls-3" d="M52.89 15.76h.07c-11-.61-11.4 10.93-11.4 10.93a11.18 11.18 0 0 0 5.87 10.09c-2.69-3.12-2.52-4.14-2.76-6.37a9.53 9.53 0 0 1 1.15-4.72c.21-.26.27.16.27.16a9.18 9.18 0 0 0-.87 6.63 6.5 6.5 0 0 0 2.57 4.11 4.4 4.4 0 0 1-1.13-3 5.15 5.15 0 0 1 2.69-4.39c2.34-1.26 2.36-2.52 2.82-4.35a5.37 5.37 0 0 0-.89-4 4.45 4.45 0 0 1-.28-2.74c.16-1.11 1.89-2.35 1.89-2.35zm-5.29 9.18-.68 1.39-.19-1.56-1.41-.28 1.29-.68-.19-1.56 1 1.13 1.29-.68-.71 1.39 1 1.13z"/><path class="cls-3" d="M68.13 35.07h.06c-3.07-11.58-13.14-8.25-13.14-8.25-6.29 2.32-6.77 9.39-6.77 9.39 1.81-3.81 2.74-4 4.59-4.94a7.35 7.35 0 0 1 4.44-.27c.29.14-.05.34-.05.34a7.1 7.1 0 0 0-6 1.27 6.59 6.59 0 0 0-2.71 4 3.88 3.88 0 0 1 2.24-2.15 4.31 4.31 0 0 1 4.66 1.35c1.84 2 2.93 1.62 4.67 1.5s2.65-1.67 3.11-2.22a3.66 3.66 0 0 1 2.24-1.22c1.07-.22 2.66 1.2 2.66 1.2zm-9.63-2.49-1.42-.25 1.28-.71-.22-1.55 1 1.11 1.28-.71-.65 1.4 1 1.12-1.42-.25-.65 1.4z"/><path class="cls-3" d="M56 57.22v.08c9.17-6.64 3.29-16.21 3.29-16.21a9.71 9.71 0 0 0-10.17-4.32c3.85.76 4.26 1.7 5.65 3.34a9.39 9.39 0 0 1 1.63 4.55c0 .34-.31.05-.31.05a8.82 8.82 0 0 0-2.88-5.91 5.58 5.58 0 0 0-4.28-1.65 3.75 3.75 0 0 1 2.53 1.71 5.48 5.48 0 0 1 .21 5.29c-1.2 2.53-.54 3.55.07 5.34a4.67 4.67 0 0 0 2.85 2.6 4 4 0 0 1 1.73 2c.41 1.05-.32 3.13-.32 3.13zm-.69-10.83-.2-1.56 1 1.13 1.28-.69-.67 1.39 1 1.13-1.41-.27-.67 1.39-.21-1.56-1.43-.27z"/><path class="cls-3" d="M33 51.41h-.08C41.5 58.94 48 49.86 48 49.86c3.93-5.86.62-12 .62-12 .52 4.25-.16 5-1.16 6.93A8.26 8.26 0 0 1 44 47.94c-.31.07-.13-.31-.13-.31a8.12 8.12 0 0 0 4.23-4.82 7.09 7.09 0 0 0 .12-5 4.4 4.4 0 0 1-5.23 5c-2.56-.48-3.24.52-4.6 1.71s-1.3 3.08-1.39 3.81a4.22 4.22 0 0 1-1.19 2.41c-.81.82-2.81.67-2.81.67zm9.18-4 1.29-.69-.68 1.39 1 1.14-1.41-.28-.68 1.39-.2-1.56-1.41-.28 1.29-.68-.2-1.56z"/><path class="cls-3" d="M31.36 25.45v-.08C27.24 36.56 37 40.76 37 40.76 43.29 43.2 47.65 38 47.65 38c-3.56 1.77-4.39 1.26-6.39.78A8.16 8.16 0 0 1 37.57 36c-.15-.3.23-.23.23-.23a7.53 7.53 0 0 0 5.42 3.06 5.63 5.63 0 0 0 4.38-1.32 3.47 3.47 0 0 1-3 .18 5 5 0 0 1-2.91-4.22c-.32-2.83-1.39-3.26-2.82-4.34s-3-.48-3.7-.37a3.5 3.5 0 0 1-2.45-.55c-.91-.57-1.36-2.76-1.36-2.76zm6.18 8.48 1 1.16-1.4-.31-.7 1.37-.17-1.56-1.41-.31 1.31-.66-.17-1.56 1 1.16 1.3-.66z"/><path d="M99.46 25.89v41.8C66.28 49.07 33.12 86.39 0 67.72V5.39c33.12 18.71 66.28-18.64 99.43 0v20.5h.03z" style="mix-blend-mode:multiply;fill:url(#linear-gradient)"/></g></g></g></svg>