<svg xmlns="http://www.w3.org/2000/svg" viewBox="0 0 99.47 73.3"><defs><linearGradient id="linear-gradient" x1=".01" y1="36.74" x2="99.47" y2="36.74" gradientUnits="userSpaceOnUse"><stop offset="0" stop-color="#fff"/><stop offset=".1" stop-color="#fbfbfb" stop-opacity=".98"/><stop offset=".25" stop-color="#efefef" stop-opacity=".93"/><stop offset=".45" stop-color="#dcdcdc" stop-opacity=".84"/><stop offset=".53" stop-color="#d2d2d2" stop-opacity=".8"/><stop offset=".6" stop-color="#c5c5c6" stop-opacity=".82"/><stop offset=".7" stop-color="#bebfc0" stop-opacity=".83"/><stop offset=".91" stop-color="#fff"/></linearGradient><style>.cls-SG{fill:#fff}</style></defs><g style="isolation:isolate"><g id="Layer_2" data-name="Layer 2"><g id="Capa_1" data-name="Capa 1"><path class="cls-SG" d="M99.47 67.76C66.32 49.05 33.16 86.47 0 67.76V5.4c33.16 18.71 66.32-18.71 99.47 0z"/><path d="M0 36.51c33.15 18.69 66.3-18.71 99.45 0V5.4C66.32-13.3 33.17 24.1 0 5.41z" style="fill:#e22b2b"/><path class="cls-SG" d="M22.63 38.29a10.19 10.19 0 0 1-3 .36c-7.06-.11-12.78-8-12.78-15.06S12.59 13 19.65 13.08a17 17 0 0 1 3 .35C17 15 12.82 19.11 12.82 25.16S17 37.15 22.63 38.29zM35.61 22.29c.29.76.58 1.53.88 2.29-.7-.37-1.41-.73-2.11-1.11-.7.66-1.41 1.31-2.11 2 .3-.88.59-1.75.88-2.64L31 21.68c.87-.14 1.74-.29 2.61-.46l.71-2.63.81 2.32 2.63-.59-2.17 2z"/><path class="cls-SG" d="m22.44 24 .88 2.44q-1-.72-2.1-1.5c-.7.52-1.4 1-2.1 1.52.29-.82.59-1.63.88-2.45q-1.08-.75-2.16-1.56c.87.06 1.73.09 2.6.11l.72-2.49c.26.83.53 1.65.8 2.48.88 0 1.76-.05 2.64-.12-.73.54-1.45 1.06-2.17 1.57zM33.45 30.21l.88 2.31-2.1-1.16c-.7.64-1.4 1.28-2.1 1.9.29-.87.58-1.74.88-2.62-.72-.37-1.45-.75-2.17-1.14q1.31-.16 2.61-.39c.24-.87.47-1.74.71-2.61l.84 2.32c.88-.16 1.76-.34 2.63-.53-.72.64-1.45 1.28-2.17 1.9zM25.16 31.35l.87 2.4c-.7-.45-1.4-.92-2.1-1.4-.7.56-1.41 1.1-2.11 1.63.3-.83.59-1.67.88-2.5q-1.08-.69-2.16-1.44h2.61c.23-.84.47-1.69.71-2.53.27.82.54 1.63.8 2.44.88-.06 1.75-.15 2.63-.24-.72.56-1.45 1.12-2.17 1.66zM29.09 18.41c.3.78.59 1.57.89 2.36l-2.11-1.28-2.11 1.77c.3-.85.59-1.71.88-2.56-.72-.42-1.45-.85-2.17-1.29.87-.06 1.74-.13 2.61-.22.23-.86.47-1.72.71-2.58l.81 2.4c.87-.12 1.75-.25 2.63-.4-.72.61-1.45 1.21-2.17 1.8z"/><path d="M99.47 26.07v41.8C66.29 49.26 33.13 86.58 0 67.9V5.58c33.12 18.7 66.28-18.65 99.43 0V26l.04.07z" style="mix-blend-mode:multiply;fill:url(#linear-gradient)"/></g></g></g></svg>