<svg xmlns="http://www.w3.org/2000/svg" viewBox="0 0 99.61 73.21"><defs><linearGradient id="linear-gradient" x1=".15" y1="36.65" x2="99.61" y2="36.65" gradientUnits="userSpaceOnUse"><stop offset="0" stop-color="#fff"/><stop offset=".1" stop-color="#fbfbfb" stop-opacity=".98"/><stop offset=".25" stop-color="#efefef" stop-opacity=".93"/><stop offset=".45" stop-color="#dcdcdc" stop-opacity=".84"/><stop offset=".53" stop-color="#d2d2d2" stop-opacity=".8"/><stop offset=".6" stop-color="#c5c5c6" stop-opacity=".82"/><stop offset=".7" stop-color="#bebfc0" stop-opacity=".83"/><stop offset=".91" stop-color="#fff"/></linearGradient><style>.cls-3{fill:#fcf5ff}.cls-4{fill:#e82525}.cls-5{fill:#fff}</style></defs><g style="isolation:isolate"><g id="Layer_2" data-name="Layer 2"><g id="Capa_1" data-name="Capa 1"><path d="M99.57 5.39v62.36C66.4 49.09 33.24 86.48.09 67.84V5.47c33.16 18.64 66.32-18.76 99.48-.08z" style="fill:#2e4593"/><path class="cls-3" d="M99.57 61.26v6.49a41 41 0 0 0-10.37-4.13C79 54.72 68.84 50 58.67 46.22l-3.06-1.11q-1.8-.64-3.6-1.26l-1.21-.42-3.67-1.26-1.37-.49-1.15-.39-2.31-.83-.74-.28-1.13-.41c-3.61-1.35-7.22-2.84-10.84-4.59-1.63-.78-3.25-1.63-4.88-2.53A87.58 87.58 0 0 1 .09 12V5.47l.08-.08c.07.08.13.16.2.23a40.91 40.91 0 0 0 10.07 4c10.37 9.07 20.75 13.79 31.12 17.6 1 .38 2 .75 3 1.11l.82.28 4.88 1.69.49.17 1.87.65 2.94 1 .51.18 2.55.93 2.49 1q3.36 1.29 6.7 2.8c1.63.74 3.25 1.53 4.88 2.38a87 87 0 0 1 26.88 21.85z"/><path class="cls-4" d="M99.58 67.58v.23a42.46 42.46 0 0 0-6.65-3.07c-11.41-11.2-22.84-16.62-34.26-20.86-1-.37-2-.72-2.92-1.07h-.14l-2.94-1-1.79-.62L47.63 40c-1-.34-2-.68-3-1l-.43-.15-1.9-.75-.74-.26c-2.74-1-5.49-2.08-8.23-3.28q-2.43-1.06-4.86-2.28A86.69 86.69 0 0 1 .09 9.61V5.33l.08.06c.07.08.13.16.2.23a87.23 87.23 0 0 0 35 25.47q2.43 1 4.87 1.93l1.33.49 3 1.1 1.15.41 1.87.65 3.45 1.19c1.51.52 3 1 4.53 1.58l.51.18 1.65.6.9.33c1.32.49 2.65 1 4 1.53C75 46 87.27 52.93 99.58 67.58z"/><path class="cls-3" d="M99.57 6.62v6.49C92 13.59 84.44 17 76.88 22q-2.43 1.58-4.88 3.38c-3.62 2.69-7.24 5.67-10.86 8.8-.83.71-1.66 1.44-2.49 2.17l-2.55 2.27-.51.45-1.15 1-1.79 1.62-1.87 1.7c-.41.36-.81.73-1.21 1.1l-5 4.51c-1 .92-2 1.83-3 2.73-9.74 8.66-19.46 16.47-29.19 20.66A40.83 40.83 0 0 1 .09 67.84v-5.28c9.59-.62 19.18-5.93 28.78-13.22q2.43-1.86 4.86-3.86 3.36-2.74 6.7-5.71l1.13-1 .74-.68L44.61 36l1.15-1 5-4.58.49-.45 4.32-3.91.55-.49c.84-.75 1.67-1.5 2.51-2.23C69.5 13.8 80.33 5.31 91.16 1.79A40.4 40.4 0 0 1 98.78 5z"/><path class="cls-4" d="M99.31 6.8c-10.84.78-21.68 7.53-32.51 16.31a219.75 219.75 0 0 0-4.88 4.08c-1.08.93-2.17 1.88-3.25 2.84l-2.55 2.27-.51.45-4.53 4.11L47.63 40l-1.87 1.7-1.15 1-.23.21-2.82 2.52c-.69.61-1.37 1.21-2.06 1.8C27.11 58.08 14.72 67.28 2.32 69c-.74-.36-1.49-.75-2.23-1.17v-2.91c10.84-.71 21.68-7.41 32.52-16.17 1.63-1.32 3.25-2.68 4.88-4.07 1.35-1.17 2.71-2.35 4.07-3.56.25-.22.5-.43.74-.66l1.88-1.67.43-.4 3-2.72 5-4.58c.78-.72 1.57-1.43 2.36-2.14l.58-.52q1.53-1.38 3.06-2.73l1.23-1.08c11.66-10.2 23.32-19 35-21.51 1.15.48 2.31 1 3.46 1.62l1.23.66v1.38z"/><path class="cls-5" d="M99.61 44.47c-33.2-18.77-66.4 18.76-99.61 0V27.36c33.21 18.76 66.41-18.77 99.61 0z"/><path class="cls-4" d="M99.61 41.41c-33.2-18.76-66.4 18.77-99.61 0v-11c33.21 18.76 66.41-18.76 99.61 0z"/><path d="M55.61 3.8v62.37c-3.66 1-7.33 2.07-11 3.07V6.87c3.67-1 7.39-2.08 11-3.07z" style="fill:#cd002a"/><path class="cls-5" d="m55.59 42.85 3-.8v23.32c-5.7 1.46-11.4 3.21-17.11 4.69V46.74c1-.26 2-.54 3.06-.82V28.81l-3.06.82V7.69C47.24 6.21 52.94 4.46 58.64 3v21.94l-3 .8z"/><path class="cls-4" d="M55.65 3.79v62.37c-3.71 1-7.42 2.09-11.12 3.1V6.89c3.7-1.01 7.41-2.09 11.12-3.1z"/><path d="M99.61 26v41.78C66.43 49.17 33.27 86.49.15 67.81V5.48c33.12 18.71 66.28-18.64 99.44 0V26h.02z" style="mix-blend-mode:multiply;fill:url(#linear-gradient)"/></g></g></g></svg>