<svg xmlns="http://www.w3.org/2000/svg" viewBox="0 0 100.11 74.31"><defs><linearGradient id="linear-gradient" x1=".25" y1="36.83" x2="99.99" y2="36.83" gradientUnits="userSpaceOnUse"><stop offset="0" stop-color="#fff"/><stop offset=".13" stop-color="#f7f7f7"/><stop offset=".34" stop-color="#e0e0e1"/><stop offset=".54" stop-color="#c4c5c6"/><stop offset=".57" stop-color="#c1c2c3"/><stop offset=".69" stop-color="#bebfc0"/><stop offset=".91" stop-color="#fff"/></linearGradient><linearGradient id="linear-gradient-2" x1=".65" y1="37.76" x2="100.11" y2="37.76" gradientUnits="userSpaceOnUse"><stop offset="0" stop-color="#fff"/><stop offset=".1" stop-color="#fbfbfb" stop-opacity=".98"/><stop offset=".25" stop-color="#efefef" stop-opacity=".93"/><stop offset=".45" stop-color="#dcdcdc" stop-opacity=".84"/><stop offset=".53" stop-color="#d2d2d2" stop-opacity=".8"/><stop offset=".6" stop-color="#c5c5c6" stop-opacity=".82"/><stop offset=".7" stop-color="#bebfc0" stop-opacity=".83"/><stop offset=".91" stop-color="#fff"/></linearGradient><style>.cls-US{fill:#e82525}.cls-3{fill:#fff}</style></defs><g style="isolation:isolate"><g id="Layer_2" data-name="Layer 2"><g id="Capa_1" data-name="Capa 1"><path class="cls-US" d="M100.11 29.86c-33.37-19-66.74 19-100.11 0V25c33.37 19 66.74-19 100.11 0z"/><path class="cls-US" d="M100.11 20.11c-33.37-19-66.74 19-100.11 0v-4.88c33.37 19 66.74-19 100.11 0z"/><path class="cls-US" d="M100.11 10.37c-33.37-19-66.74 19-100.11 0V5.49c33.37 19 66.74-19 100.11 0zM100.11 39.61c-33.37-19-66.74 19-100.11 0v-4.88c33.37 19 66.74-19 100.11 0z"/><path class="cls-US" d="M100.11 49.35c-33.37-19-66.74 19-100.11 0v-4.89c33.37 19 66.74-19 100.11 0z"/><path class="cls-US" d="M100.11 59.1c-33.37-19-66.74 19-100.11 0v-4.89c33.37 19 66.74-19 100.11 0z"/><path class="cls-US" d="M100.11 68.83c-33.37-19-66.74 19-100.11 0V64c33.37 19 66.74-19 100.11 0z"/><path class="cls-3" d="M100.11 25C66.74 6 33.37 44 0 25v-4.9c33.37 19 66.74-19 100.11 0z"/><path class="cls-3" d="M100.11 15.24c-33.37-19-66.74 19-100.11 0v-4.88c33.37 19 66.74-19 100.11 0zM100.11 34.74c-33.37-19-66.74 19-100.11 0v-4.88c33.37 19 66.74-19 100.11 0z"/><path class="cls-3" d="M100.11 44.47c-33.37-19-66.74 19-100.11 0v-4.88c33.37 19 66.74-19 100.11 0z"/><path class="cls-3" d="M100.11 54.22c-33.37-19-66.74 19-100.11 0v-4.88c33.37 19 66.74-19 100.11 0z"/><path class="cls-3" d="M100.11 64C66.74 45 33.37 83 0 64v-4.91c33.37 19 66.74-19 100.11 0z"/><path d="M37.43 9C25 11.88 12.48 12.75 0 5.64v29.5c12.48 7.11 25 6.24 37.43 3.37z" style="fill:#0d46b7"/><path class="cls-3" d="m31.29 16.1.39 1.07-.94-.56-.94.86.39-1.2-1-.53 1.18-.17c.11-.4.21-.8.32-1.2l.36 1.09 1.19-.2-1 .84zM31.29 22.06l.39 1.07-.94-.56-.94.86.39-1.2-1-.53 1.18-.17c.11-.4.21-.8.32-1.2l.36 1.09 1.19-.2-1 .84zM31.29 28l.39 1.07-.94-.56-.94.86.39-1.2-1-.53 1.18-.17c.11-.4.21-.8.32-1.2l.36 1.09 1.19-.2-1 .84zM31.29 34l.39 1.07-.94-.56-.94.86.39-1.2c-.33-.17-.65-.35-1-.54l1.18-.16c.11-.4.21-.8.32-1.2l.36 1.09 1.19-.2-1 .84zM25.1 16.84l.39 1.16-.95-.65-.95.77.4-1.17c-.33-.2-.65-.41-1-.63l1.18-.05c.1-.39.21-.78.31-1.17.13.38.25.75.37 1.13l1.18-.09-1 .75zM25.1 22.8l.39 1.11-.95-.64-.95.76c.13-.38.27-.77.4-1.16l-1-.64 1.18-.05c.1-.39.21-.78.31-1.17.13.38.25.75.37 1.13l1.18-.1-1 .76zM25.1 28.77l.39 1.1-.95-.64-.95.77c.13-.38.27-.77.4-1.16-.33-.2-.65-.41-1-.63l1.18-.05c.1-.39.21-.78.31-1.17.13.38.25.75.37 1.13l1.18-.1-1 .76zM25.1 34.72l.39 1.11-.95-.64-.95.76c.13-.38.27-.77.4-1.16-.33-.2-.65-.41-1-.63h1.18c.1-.39.21-.78.31-1.17.13.38.25.75.37 1.12l1.18-.1-1 .76zM18.9 16.94c.13.39.27.77.4 1.16l-.95-.77c-.32.23-.63.45-1 .66.13-.37.26-.75.4-1.12-.33-.24-.65-.49-1-.75l1.17.1c.11-.38.21-.76.32-1.13l.36 1.17h1.18l-1 .64zM18.9 22.9c.13.39.27.77.4 1.16l-.95-.77-1 .66c.13-.38.26-.75.4-1.12l-1-.76 1.17.1c.11-.38.21-.76.32-1.13l.36 1.16h1.18l-1 .64zM18.9 28.86c.13.39.27.77.4 1.16l-.95-.77-1 .66c.13-.38.26-.74.4-1.11-.33-.24-.65-.49-1-.75l1.17.1c.11-.38.21-.76.32-1.13l.36 1.17h1.18l-1 .64zM18.9 34.82c.13.39.27.77.4 1.16l-.95-.77-1 .66c.13-.38.26-.75.4-1.12l-1-.76 1.17.1c.11-.38.21-.76.32-1.13l.36 1.16h1.18l-1 .64zM12.81 16.24l.4 1.21-1-.89-.95.51.4-1.05-1-.9c.39.1.79.18 1.18.27.11-.36.21-.73.32-1.09l.36 1.23 1.18.21-1 .5zM12.81 22.2l.4 1.21-1-.89-.95.52c.13-.35.27-.7.4-1.06l-1-.9 1.18.27c.11-.36.21-.73.32-1.09l.36 1.22 1.18.21-1 .5zM12.81 28.16c.13.41.27.81.4 1.21-.32-.29-.64-.59-1-.9l-.95.52.4-1-1-.9c.39.1.79.18 1.18.27.11-.36.21-.73.32-1.09l.36 1.23 1.18.21-1 .5s.11-.06.11-.05zM12.81 34.12c.13.4.27.8.4 1.21-.32-.29-.64-.59-1-.9l-.95.52c.13-.36.27-.71.4-1.06l-1-.9 1.18.26c.11-.35.21-.72.32-1.08l.36 1.22c.39.08.79.15 1.18.21-.32.18-.65.34-1 .51zM6.72 14.59l.39 1.29-1-1.06-.94.35.39-1-1-1.07 1.17.47.33-1 .36 1.28c.4.15.79.28 1.19.41l-1 .34zM6.72 20.55l.39 1.28-1-1-.94.35.39-1-1-1.07 1.17.47.33-1 .36 1.28c.4.15.79.28 1.19.41l-1 .34zM6.72 26.52l.39 1.27-1-1.06c-.31.13-.63.24-.94.36l.39-1c-.32-.35-.65-.7-1-1.06l1.17.47.33-1 .36 1.28c.4.15.79.28 1.19.41l-1 .34.11-.01zM6.72 32.47l.39 1.28-1-1-.94.35.39-1-.92-1.1 1.17.47.33-1 .36 1.28c.4.15.79.28 1.19.41l-1 .34zM34.29 18.52c.13.36.27.71.4 1.06l-.95-.52-1 .89c.13-.4.26-.81.4-1.21l-1-.5 1.25-.24c.11-.4.21-.81.32-1.21l.36 1.07 1.19-.25c-.32.29-.65.59-1 .87zM34.29 24.49l.4 1.05-.95-.54c-.32.31-.63.61-1 .9.13-.4.26-.8.4-1.21l-1-.5 1.25-.19c.11-.41.21-.81.32-1.21.12.36.24.71.36 1.08l1.19-.25c-.32.3-.65.59-1 .87zM34.29 30.45l.4 1.06-.95-.51-1 .9c.13-.4.26-.81.4-1.22l-1-.5 1.25-.18.32-1.22.36 1.08 1.19-.25-1 .88zM34.29 36.42l.4 1.06-.95-.48-1 .9c.13-.41.26-.81.4-1.22l-1-.49 1.17-.22c.11-.4.21-.8.32-1.21l.36 1.08 1.19-.24-1 .87zM34.29 12.59l.4 1.06-.95-.53-1 .9c.13-.4.26-.81.4-1.22l-1-.49 1.17-.22c.11-.4.21-.8.32-1.21l.44 1.12 1.19-.24-1 .87zM28.24 19.51l.39 1.09-.95-.6c-.31.28-.63.55-.95.82.14-.39.27-.79.4-1.18l-1-.58 1.17-.11.33-1.19.36 1.1 1.19-.16-1 .8zM28.24 25.47l.39 1.09-.95-.6c-.31.28-.63.55-.95.82.14-.39.27-.79.4-1.18l-1-.58q.59 0 1.17-.12l.33-1.18.37 1.1 1.19-.16-1 .8zM28.24 31.44l.39 1.09-.95-.6-.95.82c.14-.39.27-.79.4-1.18l-1-.58 1.17-.12.33-1.18.36 1.1c.4 0 .79-.09 1.19-.15l-1 .81zM28.24 37.41l.39 1.09-.95-.6c-.31.27-.63.55-.95.81.14-.39.27-.78.4-1.17l-1-.57c.39 0 .78-.07 1.17-.12l.33-1.18.36 1.1c.4 0 .79-.09 1.19-.15l-1 .8zM28.24 13.58l.39 1.09-.95-.6-.95.82c.14-.4.27-.79.4-1.19l-1-.57 1.2-.13.33-1.18.36 1.1 1.19-.15-1 .8zM21.94 20c.13.38.26.76.4 1.13-.32-.23-.64-.46-.95-.7l-.94.71.38-1.14c-.33-.22-.65-.45-1-.69H21l.33-1.15c.12.37.24.76.36 1.14h1.19l-1 .7zM21.94 25.92c.13.38.26.76.4 1.13-.32-.23-.64-.46-.95-.7l-.94.71.39-1.13-1-.68h1.17l.33-1.16.36 1.15h1.19l-1 .7zM21.94 31.89c.13.37.26.75.4 1.13l-.95-.71c-.31.25-.63.48-.94.72l.39-1.14-1-.7h1.17l.33-1.15.36 1.15h1.19l-1 .7zM21.94 37.86c.13.37.26.75.4 1.13-.32-.23-.64-.46-.95-.7l-.94.71.39-1.14c-.33-.22-.65-.45-1-.69h1.17l.35-1.17.36 1.15h1.19l-1 .7zM21.94 14c.13.37.26.75.4 1.13-.32-.23-.64-.46-.95-.7l-.94.71.38-1.14c-.33-.22-.65-.45-1-.69H21l.33-1.15.36 1.15h1.19l-1 .7zM15.78 19.66l.39 1.19-.94-.85-.94.58c.13-.36.26-.72.4-1.08l-1-.82 1.17.18c.11-.37.21-.74.32-1.11l.38 1.25c.4 0 .79.09 1.19.12-.33.19-.65.39-1 .57zM15.78 25.62l.39 1.19-.94-.81-.94.58c.13-.36.26-.72.4-1.08l-1-.82q.58.11 1.17.18c.11-.37.21-.74.32-1.11l.36 1.2c.4 0 .79.09 1.19.12-.33.2-.65.39-1 .57zM15.78 31.59l.39 1.19-.94-.78-.94.58c.13-.36.26-.72.4-1.08-.33-.27-.65-.54-1-.83l1.17.19c.11-.37.21-.74.32-1.11l.36 1.19 1.19.13-1 .57zM15.78 37.56l.39 1.18-.94-.82-.94.58c.13-.36.26-.72.4-1.08l-1-.82 1.17.17c.11-.36.21-.73.32-1.1l.36 1.19 1.19.13-1 .57zM15.78 13.73l.39 1.18-.94-.82-.94.58c.13-.36.26-.72.4-1.08-.33-.27-.65-.55-1-.83q.58.11 1.17.18l.32-1.1.38 1.16 1.19.13-1 .57zM9.75 18.51c.13.42.26.84.4 1.25l-1-1-.94.43c.13-.34.26-.68.4-1-.32-.32-.65-.64-1-1l1.17.37c.11-.35.21-.7.32-1.06.12.42.24.84.37 1.25l1.18.3c-.32.15-.65.29-1 .42zM9.75 24.48c.13.41.26.83.4 1.24l-1-1-.94.44c.13-.34.26-.68.4-1l-1-1c.39.12.78.25 1.17.36.11-.35.21-.7.32-1.06.12.42.24.84.37 1.26l1.18.3c-.32.15-.65.29-1 .42s.1.03.1.04zM9.75 30.44c.13.42.26.83.4 1.25-.32-.32-.63-.65-1-1l-.94.44c.13-.34.26-.68.4-1l-1-1 1.17.37c.11-.35.21-.71.32-1.06.12.42.24.83.37 1.25l1.18.31c-.32.14-.65.29-1 .42zM9.75 36.41c.13.42.26.83.4 1.25l-1-1-.94.44c.13-.34.26-.68.4-1l-1-1 1.17.37c.11-.36.21-.71.32-1.06.12.42.24.83.37 1.25l1.18.31c-.32.14-.65.29-1 .42zM9.75 12.58c.13.42.26.83.4 1.25l-1-1-.94.44c.13-.34.26-.68.4-1l-1-1 1.17.36c.11-.35.21-.7.32-1.05.12.42.24.83.37 1.25l1.18.31-1 .42zM3.62 16.32c.13.44.27.88.4 1.32l-.95-1.14-.94.26c.13-.31.27-.63.4-.95l-1-1.17c.39.21.79.4 1.18.59.1-.33.21-.66.32-1l.36 1.31c.4.18.79.36 1.19.52l-1 .25zM3.62 22.28c.13.45.27.88.4 1.32l-.95-1.15-.94.26.4-.94-1-1.16 1.18.58c.1-.33.21-.66.32-1l.37 1.31c.4.18.79.36 1.19.52l-1 .25.03.01zM3.62 28.25c.13.44.27.88.4 1.32l-.95-1.15-.94.26c.13-.31.27-.63.4-.95l-1-1.17c.39.21.79.4 1.18.59.1-.33.21-.66.32-1l.36 1.32 1.2.53-1 .25zM3.62 34.22c.13.44.27.88.4 1.32l-.95-1.15-.94.26c.13-.31.27-.63.4-.95l-1-1.17 1.18.59c.1-.33.21-.67.32-1l.36 1.32 1.2.56-1 .25zM3.62 10.39c.13.44.27.88.4 1.32l-.95-1.15-.94.26c.13-.31.27-.63.4-1l-1-1.17c.39.2.79.4 1.18.58.1-.33.21-.66.32-1l.37 1.38 1.19.52-1 .25z"/><path d="M100 26.16V68C66.71 49.36 33.47 86.7.25 68V5.64C33.47 24.36 66.71-13 100 5.61v20.55z" style="fill:url(#linear-gradient);mix-blend-mode:multiply"/><path d="M100.11 27.09v41.8C66.93 50.28 33.77 87.6.65 68.92V6.59C33.77 25.3 66.93-12 100.09 6.56v20.5l.02.03z" style="fill:url(#linear-gradient-2);mix-blend-mode:multiply"/></g></g></g></svg>