<svg width="24" height="24" viewBox="0 0 24 24" fill="none" xmlns="http://www.w3.org/2000/svg">
<g clip-path="url(#clip0_26:29)">
<path d="M18.75 13.5112C19.1642 13.5112 19.5 13.847 19.5 14.2612C19.5 14.6754 19.1642 15.0112 18.75 15.0112H16.7175C16.434 15.0114 16.1905 15.2126 16.1367 15.4909C16.0829 15.7692 16.234 16.0466 16.4957 16.1519L18.561 16.9784C19.4903 17.3524 20.0241 18.3327 19.8341 19.3162C19.644 20.2998 18.7833 21.0105 17.781 21.0112H15.75C15.3358 21.0112 15 20.6754 15 20.2612C15 19.847 15.3358 19.5112 15.75 19.5112H17.7805C18.064 19.511 18.3075 19.3099 18.3613 19.0316C18.4151 18.7532 18.264 18.4758 18.0023 18.3705L15.937 17.544C15.0077 17.1701 14.4739 16.1898 14.6639 15.2062C14.854 14.2227 15.7147 13.5119 16.717 13.5112H18.75ZM18 21.0112C18 21.4254 17.6642 21.7612 17.25 21.7612C16.8358 21.7612 16.5 21.4254 16.5 21.0112V20.2612C16.5 19.847 16.8358 19.5112 17.25 19.5112C17.6642 19.5112 18 19.847 18 20.2612V21.0112ZM9.75 0.0112305C11.9797 0.0112305 13.8307 1.63295 14.1878 3.76123H17.25C18.4926 3.76123 19.5 4.76859 19.5 6.01123V8.26123C19.5 8.67544 19.1642 9.01123 18.75 9.01123C18.3358 9.01123 18 8.67544 18 8.26123V6.01123C18 5.59702 17.6642 5.26123 17.25 5.26123H13.5C13.0858 5.26123 12.75 4.92544 12.75 4.51123C12.75 2.85438 11.4069 1.51123 9.75 1.51123C8.09315 1.51123 6.75 2.85438 6.75 4.51123C6.75 4.92544 6.41421 5.26123 6 5.26123H2.25C1.83579 5.26123 1.5 5.59702 1.5 6.01123V21.7612C1.5 22.1754 1.83579 22.5112 2.25 22.5112H9.75C10.1642 22.5112 10.5 22.847 10.5 23.2612C10.5 23.6754 10.1642 24.0112 9.75 24.0112H2.25C1.00736 24.0112 0 23.0039 0 21.7612V6.01123C0 4.76859 1.00736 3.76123 2.25 3.76123H5.31222C5.66928 1.63295 7.52025 0.0112305 9.75 0.0112305ZM17.25 10.5112C20.9779 10.5112 24 13.5333 24 17.2612C24 20.9892 20.9779 24.0112 17.25 24.0112C13.5221 24.0112 10.5 20.9892 10.5 17.2612C10.5 13.5333 13.5221 10.5112 17.25 10.5112ZM17.25 12.0112C14.3505 12.0112 12 14.3617 12 17.2612C12 20.1607 14.3505 22.5112 17.25 22.5112C20.1495 22.5112 22.5 20.1607 22.5 17.2612C22.5 14.3617 20.1495 12.0112 17.25 12.0112ZM8.25 17.2612C8.66421 17.2612 9 17.597 9 18.0112C9 18.4254 8.66421 18.7612 8.25 18.7612H5.25C4.83579 18.7612 4.5 18.4254 4.5 18.0112C4.5 17.597 4.83579 17.2612 5.25 17.2612H8.25ZM17.25 12.7612C17.6642 12.7612 18 13.097 18 13.5112V14.2612C18 14.6754 17.6642 15.0112 17.25 15.0112C16.8358 15.0112 16.5 14.6754 16.5 14.2612V13.5112C16.5 13.097 16.8358 12.7612 17.25 12.7612ZM8.25 13.5112C8.66421 13.5112 9 13.847 9 14.2612C9 14.6754 8.66421 15.0112 8.25 15.0112H5.25C4.83579 15.0112 4.5 14.6754 4.5 14.2612C4.5 13.847 4.83579 13.5112 5.25 13.5112H8.25ZM10.5 9.76123C10.9142 9.76123 11.25 10.097 11.25 10.5112C11.25 10.9254 10.9142 11.2612 10.5 11.2612H5.25C4.83579 11.2612 4.5 10.9254 4.5 10.5112C4.5 10.097 4.83579 9.76123 5.25 9.76123H10.5ZM9.75 3.01123C10.3713 3.01123 10.875 3.51491 10.875 4.13623C10.875 4.75755 10.3713 5.26123 9.75 5.26123C9.12868 5.26123 8.625 4.75755 8.625 4.13623C8.625 3.55647 9.06355 3.07914 9.62702 3.01788L9.74956 3.01123C9.74971 3.01123 9.74985 3.01123 9.75 3.01123Z" fill="#9BA4AB"/>
</g>
<defs>
<clipPath id="clip0_26:29">
<rect width="24" height="24" fill="white"/>
</clipPath>
</defs>
</svg>
