<svg width="150" height="150" fill="none" xmlns="http://www.w3.org/2000/svg"><mask id="a" mask-type="alpha" maskUnits="userSpaceOnUse" x="0" y="0" width="150" height="150" data-testid="errorDefaultIcon_icon"><path fill="#fff" d="M0 0h150v150H0z"/></mask><g mask="url(#a)"><path d="M121.223 39.512a.484.484 0 0 0-.247.638c.109.253.214.511.315.773.097.252.376.38.624.285a.483.483 0 0 0 .273-.627 24.304 24.304 0 0 0-.33-.81.486.486 0 0 0-.635-.26zm1.398 4.036a.48.48 0 0 0-.36.58c.062.27.121.544.174.82a.49.49 0 0 0 .566.39.48.48 0 0 0 .379-.567c-.056-.286-.116-.57-.181-.851a.488.488 0 0 0-.578-.372zm.262 4.755a.477.477 0 0 1 .444-.516.491.491 0 0 1 .516.456c.021.288.038.576.051.865a.477.477 0 0 1-.459.502.492.492 0 0 1-.503-.47c-.012-.28-.029-.559-.049-.837zm.524 3.732a.476.476 0 0 0-.514.445c-.019.28-.043.557-.07.832a.493.493 0 0 0 .43.54.474.474 0 0 0 .527-.43c.029-.284.053-.572.074-.861a.494.494 0 0 0-.447-.526zm-1.135 4.57a.475.475 0 0 1 .582-.35.495.495 0 0 1 .354.593c-.07.287-.143.567-.222.84a.474.474 0 0 1-.596.325.494.494 0 0 1-.329-.607c.075-.26.145-.528.211-.8zm-.779 3.66a.475.475 0 0 0-.656.175 8.73 8.73 0 0 1-.423.68.493.493 0 0 0 .123.678.475.475 0 0 0 .669-.115c.163-.235.319-.487.469-.753a.494.494 0 0 0-.182-.666zM118 63.184a.483.483 0 0 1 .654.2.485.485 0 0 1-.19.659c-.28.152-.546.28-.798.386a.484.484 0 0 1-.632-.264.483.483 0 0 1 .252-.635c.223-.094.461-.21.714-.346zm-3.315.516a.482.482 0 0 0 .264-.631 3.515 3.515 0 0 1-.19-.723.489.489 0 0 0-.555-.406.479.479 0 0 0-.394.556c.058.345.136.649.248.928.1.25.381.374.627.276zm1.101-3.993a.478.478 0 0 1-.681-.021.491.491 0 0 1 .012-.688c.209-.201.441-.395.695-.58a.48.48 0 0 1 .673.112.487.487 0 0 1-.103.68c-.22.16-.419.327-.596.497zm2.972-2.134a.49.49 0 0 0 .506.467c.253-.01.503.005.744.045a.475.475 0 0 0 .548-.402.494.494 0 0 0-.405-.56 4.608 4.608 0 0 0-.938-.056.476.476 0 0 0-.455.506zm3.458 2.279a.483.483 0 0 1 .27-.628.486.486 0 0 1 .625.281c.111.285.196.591.254.917a.48.48 0 0 1-.389.56.49.49 0 0 1-.559-.4 3.878 3.878 0 0 0-.201-.73zm.536 3.6a.474.474 0 0 0-.588.338c-.067.255-.144.517-.231.787a.495.495 0 0 0 .309.617.475.475 0 0 0 .607-.303c.092-.287.175-.567.246-.84a.494.494 0 0 0-.343-.6zm-2.179 4.103a.475.475 0 0 1 .661-.155.493.493 0 0 1 .163.67c-.147.243-.302.487-.466.732a.475.475 0 0 1-.668.124.494.494 0 0 1-.131-.677c.155-.233.303-.464.441-.694zm-1.803 3.266a.477.477 0 0 0-.68.029c-.181.202-.368.406-.561.61a.49.49 0 0 0 .02.688.477.477 0 0 0 .68-.01c.199-.211.392-.42.579-.63a.492.492 0 0 0-.038-.687zm-3.643 2.961a.479.479 0 0 1 .68.047.49.49 0 0 1-.038.687c-.208.186-.421.373-.638.56a.479.479 0 0 1-.679-.059.49.49 0 0 1 .049-.686c.213-.183.422-.366.626-.549zm-2.557 2.76a.48.48 0 0 0-.675-.096c-.219.167-.44.335-.666.504a.488.488 0 0 0-.094.68.48.48 0 0 0 .674.105c.228-.17.453-.341.674-.51a.488.488 0 0 0 .087-.683zm-4.034 2.337a.48.48 0 0 1 .67.132.487.487 0 0 1-.121.676c-.23.158-.463.316-.698.475" fill="#C6CED4"/><path d="m19.042 126.667 63.087-21.539h17.65l-2.762 1.742 13.503-1.742h21.123l-11.962 6.637 1.191 4.133-88.195 8.604-3.354.973-2.797.164-2.142.669h-2.4l-.53.359h-2.412z" fill="#ECF0F3"/><path d="m80.278 40.867 4.659 6.374-48.989 63.69-8.104 6.436-1.317 3.62-1.56 1.085-.689 1.894-1.442-.524-1.76 2.773-1.896-.202 1.816-.332 1.255-3.052.893-.032.382-1.05 1.009-1.285 1.317-3.62 8.075-8.228 6.683-13.93 39.668-53.617z" fill="#ECF0F3"/><path d="m49.011 103.862 50.187-42.78-5.19-10.772-48.343 50.064-.024-.025-8.343 11.607.014.041-.024-.064-9.235 5.859-.137-.089-1.37 3.762-.857.556-.01-.029-1.296 2.236-.002.01-1.4-.51-.685 1.11.02.009-1.046 1.635 1.383-1.477 1.588.741v.002l1.71-2.968v-.003l.973-.66-.01-.02.017.026 1.838-3.844 9.42-3.821.005.016.032-.031.01-.004-.002-.004 10.825-10.523-.048-.05z" fill="#DDE3E7"/><path d="m89.525 41.365 13.79-.954-57.595 60.094-8.226 11.532-9.308 5.637-1.52 3.749-1.006.704-1.407 2.357-1.321-.48-1.672 2.487-2.095-.435 1.86-.082 1.516-2.731 1.417.305.555-1.838 1.061-.857 1.612-3.544 8.22-6.842 8.108-11.775 46.01-57.326z" fill="#fff"/><path d="m20.84 126.068 1.282-3.52.692.049.11-1.178.796-1.309 1.184-4.132 7.405-7.941 4.722-12.975 30.7-53.756 12.515-.45L41.448 96.67l-6.713 12.25-8.108 7.686-1.892 3.996-.992 1.115-.343 1.296-1.037-.054-1.523 3.109z" fill="#fff"/><path d="m64.352 63.714 3.381 4.806 17.438-21.458-4.89-6.172-15.929 22.824z" fill="#DDE3E7"/><path d="M89.501 41.198 71.261 64.19l32.127-23.847-13.887.856z" fill="#EEF1F3"/><path d="M67.728 41.309 64.4 63.685l15.893-22.812-12.565.436zM21.948 119.119a.42.42 0 1 1 .76-.363l2 4.165a.421.421 0 0 1-.759.363l-2-4.165zM19.737 125.256a.42.42 0 1 1 .129-.83l3.54.545a.42.42 0 1 1-.129.83l-3.54-.545z" fill="#DDE3E7"/></g></svg>