<svg width="14" height="15" viewBox="0 0 14 15" fill="none" xmlns="http://www.w3.org/2000/svg">
<path d="M11.5001 0.25C12.8808 0.25 14.0001 1.36929 14.0001 2.75V8.72302C13.9942 9.40046 13.7189 10.0477 13.235 10.5218C12.7511 10.9959 12.0983 11.2579 11.4268 11.25H10.4984L10.4979 12.7132C10.5556 13.3264 10.3072 13.9286 9.8341 14.323C9.36097 14.7173 8.72386 14.8531 8.13561 14.6872L2.08625 13.0421C0.867392 12.6629 0.0277639 11.5465 0.00145707 10.26L0.00158478 2.63663C-0.0121854 2.02755 0.208657 1.46739 0.583297 1.04293C0.600969 1.01991 0.620518 0.998615 0.641653 0.979219C1.05325 0.546157 1.63149 0.2691 2.28146 0.25H11.5001ZM1.17758 1.92326C1.06039 2.12899 0.995709 2.36915 1.00146 2.62533L1.00135 10.2497C1.01872 11.0958 1.57533 11.8358 2.36597 12.0822L8.40251 13.7234C8.67797 13.8011 8.97401 13.738 9.19386 13.5548C9.41371 13.3716 9.5291 13.0917 9.50012 12.76L9.50024 5.76405C9.48194 4.91054 8.92717 4.16143 8.13542 3.90095L1.17758 1.92326ZM12.9996 6.25H10.4996L10.4987 10.25L11.4327 10.25C11.8444 10.2549 12.241 10.0956 12.5351 9.8075C12.8292 9.51937 12.9966 9.12602 13.0001 8.71867L12.9996 6.25ZM7.24983 7.75C7.66434 7.75 8.00012 8.08579 8.00012 8.5C8.00012 8.91421 7.66434 9.25 7.25012 9.25C6.83591 9.25 6.50012 8.91421 6.50012 8.5C6.50012 8.08588 6.83575 7.75016 7.24983 7.75ZM2.46543 1.24979L8.42815 2.94497C9.4809 3.29075 10.2452 4.17983 10.4476 5.24997L12.9996 5.25L13.0001 2.75C13.0001 1.92157 12.3285 1.25 11.5001 1.25L2.46543 1.24979Z" fill="#59656D"/>
</svg>