<svg width="24" height="24" viewBox="0 0 24 24" fill="none" xmlns="http://www.w3.org/2000/svg">
<path d="M22.4086 15.2505C23.2523 15.2185 23.9633 15.8744 24 16.75L23.9992 21.4246C23.9651 22.1854 23.3244 22.7766 22.59 22.75L14.177 22.7495C13.4207 22.7768 12.784 22.189 12.75 21.4L12.7508 16.5754C12.7847 15.8199 13.4168 15.2316 14.1709 15.25L22.4086 15.2505ZM14.2493 21.25L22.5 21.2505L22.5007 16.782C22.4999 16.7633 22.4841 16.7488 22.437 16.75H14.25L14.2493 21.25ZM22.6166 21.2505C22.6139 21.2504 22.6113 21.2504 22.6086 21.2505L22.6166 21.2505ZM14.15 21.25H14.1544C14.1529 21.2499 14.1514 21.2499 14.15 21.25ZM19.4879 19.012C19.4813 19.6276 18.9786 20.1222 18.363 20.119C17.7474 20.1157 17.2501 19.6157 17.25 18.994C17.2524 18.6964 17.3729 18.412 17.585 18.2032C17.7967 17.995 18.0822 17.8791 18.379 17.881C18.3858 17.8811 18.3875 17.8811 18.3892 17.8811C19.0038 17.8922 19.4946 18.3971 19.4879 19.012ZM3.34052 5.7025C3.01489 5.00562 3.06783 4.19069 3.48087 3.5418C3.89391 2.89291 4.60982 2.5 5.379 2.5H10.5C10.9142 2.5 11.25 2.83579 11.25 3.25C11.25 3.66421 10.9142 4 10.5 4H5.37898C5.12258 4 4.88394 4.13097 4.74626 4.34727C4.60858 4.56356 4.59094 4.83521 4.6992 5.0669C5.14113 6.01048 5.61059 7.02805 6.13795 8.19004C6.28777 8.52015 6.18004 8.91017 5.88202 9.11657C3.61642 10.6857 1.5 13.9232 1.5 16.375C1.5 18.9333 4.3766 21.25 7.50023 21.25C9.64936 21.2507 11.6616 20.1952 12.8829 18.4268C13.1182 18.086 13.5854 18.0005 13.9262 18.2359C14.267 18.4712 14.3525 18.9384 14.1171 19.2792C12.6157 21.4533 10.1419 22.7508 7.5 22.75C3.61095 22.75 0 19.8419 0 16.375C0 13.5623 2.09347 10.1784 4.52141 8.25901C4.09663 7.32752 3.70901 6.48928 3.34052 5.7025ZM11.2375 11.142C10.9635 10.8313 10.9933 10.3574 11.304 10.0835C11.6147 9.80951 12.0886 9.83929 12.3625 10.15C13.7866 11.7649 14.6979 13.7671 14.9805 15.9015C15.0349 16.3122 14.7461 16.6891 14.3355 16.7435C13.9248 16.7979 13.5479 16.5091 13.4935 16.0985C13.2499 14.2591 12.4646 12.5337 11.2375 11.142ZM5.23227 18.2983C4.98135 17.9688 5.04511 17.4982 5.37467 17.2473C5.70423 16.9964 6.17481 17.0601 6.42573 17.3897C6.71703 17.7723 7.17666 17.9887 7.687 17.969C8.45096 17.969 9 17.5573 9 17.172C9 16.7871 8.4513 16.376 7.687 16.376C6.17294 16.376 4.875 15.4016 4.875 14.078C4.875 12.7546 6.17346 11.781 7.65663 11.7816C8.62657 11.7423 9.55454 12.1793 10.142 12.9521C10.3927 13.2818 10.3287 13.7524 9.99891 14.003C9.66917 14.2537 9.19864 14.1897 8.94795 13.8599C8.65707 13.4773 8.19761 13.2609 7.687 13.281C6.92341 13.281 6.375 13.6922 6.375 14.078C6.375 14.4645 6.92314 14.876 7.687 14.876C9.2011 14.876 10.5 15.8492 10.5 17.172C10.5 18.4948 9.20094 19.469 7.71685 19.4684C6.74737 19.507 5.82002 19.0703 5.23227 18.2983ZM6.937 18.719C6.937 18.3048 7.27279 17.969 7.687 17.969C8.10121 17.969 8.437 18.3048 8.437 18.719V19.75C8.437 20.1642 8.10121 20.5 7.687 20.5C7.27279 20.5 6.937 20.1642 6.937 19.75V18.719ZM6.937 11.5C6.937 11.0858 7.27279 10.75 7.687 10.75C8.10121 10.75 8.437 11.0858 8.437 11.5V12.531C8.437 12.9452 8.10121 13.281 7.687 13.281C7.27279 13.281 6.937 12.9452 6.937 12.531V11.5ZM23.25 1C23.6417 1 23.9632 1.30021 23.9971 1.68307C23.9979 1.69533 23.9987 1.70773 23.9993 1.72013C23.9998 1.73022 24 1.74009 24 1.75V5.286C24 5.70021 23.6642 6.036 23.25 6.036C22.8358 6.036 22.5 5.70021 22.5 5.286V3.561L20.531 5.52971C19.9599 6.10209 19.1204 6.31402 18.3684 6.08757L14.6967 5.1064C14.4554 5.04169 14.198 5.11066 14.0216 5.28705L10.2756 9.03705C9.98288 9.3301 9.508 9.33035 9.21495 9.03761C8.9219 8.74488 8.92165 8.27 9.21439 7.97695L12.9606 4.2267C13.5163 3.67099 14.3263 3.45404 15.0846 3.65743L18.7779 4.64476C19.0229 4.71839 19.2884 4.65135 19.4699 4.46943L21.44 2.5H19.714C19.2998 2.5 18.964 2.16421 18.964 1.75C18.964 1.33579 19.2998 1 19.714 1H23.25Z" fill="#9BA4AB"/>
</svg>
