<svg width="18" height="12" viewBox="0 0 18 12" fill="none" xmlns="http://www.w3.org/2000/svg">
<g filter="url(#filter0_d_13781_1766)">
<g clip-path="url(#clip0_13781_1766)">
<path d="M17.0167 1.5H0.983398V10.5H17.0167V1.5Z" fill="#012169"/>
<path d="M0.983398 1.5L9.00006 5.50833L0.983398 1.5ZM9.00006 1.5L0.983398 5.50833L9.00006 1.5Z" fill="black"/>
<path d="M8.82087 5.8666L4.9917 3.95244L1.16253 5.8666L0.804199 5.14994L4.09503 3.5041L0.804199 1.85827L1.16253 1.1416L4.9917 3.05577L8.82087 1.1416L9.1792 1.85827L5.88837 3.5041L9.1792 5.14994L8.82087 5.8666Z" fill="white"/>
<path d="M0.983398 1.5L9.00006 5.50833L0.983398 1.5ZM9.00006 1.5L0.983398 5.50833L9.00006 1.5Z" fill="black"/>
<path d="M8.88093 5.74741L4.99176 3.80324L1.10259 5.74741L0.864258 5.26908L4.39426 3.50408L0.864258 1.73908L1.10259 1.26074L4.99176 3.20491L8.88093 1.26074L9.11926 1.73908L5.58926 3.50408L9.11926 5.26908L8.88093 5.74741Z" fill="#E4002B"/>
<path d="M4.99173 1.5V5.50833V1.5ZM0.983398 3.50417H9.00007H0.983398Z" fill="black"/>
<path d="M5.65923 5.50833H4.32423V4.17167H0.983398V2.83667H4.32423V1.5H5.65923V2.83667H9.00007V4.17167H5.65923V5.50833Z" fill="white"/>
<path d="M4.99173 1.5V5.50833V1.5ZM0.983398 3.50417H9.00007H0.983398Z" fill="black"/>
<path d="M5.39257 5.50833H4.5909V3.905H0.983398V3.10333H4.5909V1.5H5.39257V3.10333H9.00007V3.905H5.39257V5.50833Z" fill="#E4002B"/>
<path d="M4.99159 6.31006L5.22326 7.03173L5.93076 6.76339L5.51076 7.39506L6.16242 7.78173L5.40826 7.84672L5.51242 8.59672L4.99159 8.04673L4.46909 8.59506L4.57326 7.84506L3.81909 7.78006L4.47076 7.39339L4.05076 6.76173L4.75826 7.03006L4.99159 6.31006Z" fill="white"/>
<path d="M13.0083 7.60742L13.1183 7.95075L13.455 7.82325L13.2558 8.12409L13.5666 8.30825L13.2075 8.33992L13.2566 8.69659L13.0083 8.43575L12.76 8.69742L12.8091 8.34075L12.45 8.30909L12.7608 8.12492L12.5616 7.82409L12.8983 7.95159L13.0083 7.60742Z" fill="white"/>
<path d="M11.0041 4.43506L11.1141 4.77839L11.4508 4.65089L11.2516 4.95173L11.5625 5.13589L11.2033 5.16756L11.2525 5.52423L11.0041 5.26256L10.7558 5.52423L10.805 5.16756L10.4458 5.13589L10.7566 4.95173L10.5575 4.65089L10.8941 4.77839L11.0041 4.43506Z" fill="white"/>
<path d="M13.0083 2.26416L13.1183 2.60749L13.455 2.47999L13.2558 2.78083L13.5666 2.96499L13.2075 2.99666L13.2566 3.35333L13.0083 3.09166L12.76 3.35333L12.8091 2.99666L12.45 2.96499L12.7608 2.78083L12.5616 2.47999L12.8983 2.60749L13.0083 2.26416Z" fill="white"/>
<path d="M14.7893 3.8999L14.8993 4.24324L15.236 4.11574L15.0368 4.41657L15.3476 4.60074L14.9885 4.6324L15.0376 4.98907L14.7893 4.7274L14.541 4.98907L14.5901 4.6324L14.231 4.60074L14.5418 4.41657L14.3426 4.11574L14.6793 4.24324L14.7893 3.8999Z" fill="white"/>
<path d="M13.81 5.5083L13.8975 5.72247L14.1284 5.73913L13.9517 5.8883L14.0067 6.11247L13.81 5.9908L13.6134 6.11247L13.6684 5.8883L13.4917 5.73913L13.7225 5.72247L13.81 5.5083Z" fill="white"/>
</g>
</g>
<defs>
<filter id="filter0_d_13781_1766" x="0" y="0.5" width="18" height="11" filterUnits="userSpaceOnUse" color-interpolation-filters="sRGB">
<feFlood flood-opacity="0" result="BackgroundImageFix"/>
<feColorMatrix in="SourceAlpha" type="matrix" values="0 0 0 0 0 0 0 0 0 0 0 0 0 0 0 0 0 0 127 0" result="hardAlpha"/>
<feOffset/>
<feGaussianBlur stdDeviation="0.5"/>
<feComposite in2="hardAlpha" operator="out"/>
<feColorMatrix type="matrix" values="0 0 0 0 0 0 0 0 0 0 0 0 0 0 0 0 0 0 0.25 0"/>
<feBlend mode="normal" in2="BackgroundImageFix" result="effect1_dropShadow_13781_1766"/>
<feBlend mode="normal" in="SourceGraphic" in2="effect1_dropShadow_13781_1766" result="shape"/>
</filter>
<clipPath id="clip0_13781_1766">
<path d="M1 3.5C1 2.39543 1.89543 1.5 3 1.5H15C16.1046 1.5 17 2.39543 17 3.5V8.5C17 9.60457 16.1046 10.5 15 10.5H3C1.89543 10.5 1 9.60457 1 8.5V3.5Z" fill="white"/>
</clipPath>
</defs>
</svg>
