<svg width="18" height="12" viewBox="0 0 18 12" fill="none" xmlns="http://www.w3.org/2000/svg">
<g filter="url(#filter0_d_13781_3046)">
<g clip-path="url(#clip0_13781_3046)">
<path d="M0.983398 1.5H4.99173L5.15673 1.68583H12.8426L13.0084 1.5H17.0167V10.5H13.0084L12.8434 10.3142H5.15673L4.99173 10.5H0.983398V1.5Z" fill="#D52B1E"/>
<path d="M4.9917 1.5H13.0084V10.5H4.9917V1.5ZM9.15003 9.80667L9.07503 8.18833C9.07087 8.09 9.13837 8.00667 9.22587 8.0025C9.23753 8.00167 9.24837 8.0025 9.26003 8.005L10.695 8.28833L10.5017 7.68833C10.4859 7.63917 10.4992 7.58417 10.535 7.55167L12.1067 6.1225L11.7525 5.93667C11.7034 5.91083 11.6784 5.84667 11.6959 5.78833L12.0067 4.71583L11.1017 4.93167C11.0509 4.94333 11 4.91333 10.98 4.86083L10.805 4.3975L10.0984 5.24833C10.0575 5.2975 9.98837 5.29917 9.94503 5.25333C9.91837 5.225 9.90587 5.1825 9.91337 5.14167L10.2542 3.16917L9.70837 3.52333C9.6567 3.5575 9.59003 3.5375 9.56003 3.48C9.5592 3.4775 9.55753 3.475 9.5567 3.4725L9.00003 2.25L8.44587 3.4725C8.4192 3.5325 8.3542 3.5575 8.30003 3.52667C8.29753 3.52583 8.29587 3.52417 8.29337 3.5225L7.74753 3.16833L8.08837 5.14167C8.10003 5.2075 8.06087 5.27167 8.00253 5.28417C7.96587 5.29167 7.92837 5.27833 7.90337 5.24833L7.1967 4.3975L7.0217 4.86083C7.0017 4.91417 6.95003 4.94417 6.90003 4.93167L5.99503 4.71583L6.30587 5.78833C6.32253 5.84667 6.29837 5.91 6.2492 5.93667L5.89503 6.1225L7.4667 7.55167C7.50253 7.58417 7.51587 7.64 7.50003 7.68833L7.3067 8.28833L8.7417 8.005C8.82837 7.98833 8.91003 8.05333 8.92503 8.15C8.9267 8.1625 8.92753 8.17583 8.92753 8.18833L8.85253 9.80667H9.15003Z" fill="white"/>
</g>
</g>
<defs>
<filter id="filter0_d_13781_3046" x="0" y="0.5" width="18" height="11" filterUnits="userSpaceOnUse" color-interpolation-filters="sRGB">
<feFlood flood-opacity="0" result="BackgroundImageFix"/>
<feColorMatrix in="SourceAlpha" type="matrix" values="0 0 0 0 0 0 0 0 0 0 0 0 0 0 0 0 0 0 127 0" result="hardAlpha"/>
<feOffset/>
<feGaussianBlur stdDeviation="0.5"/>
<feComposite in2="hardAlpha" operator="out"/>
<feColorMatrix type="matrix" values="0 0 0 0 0 0 0 0 0 0 0 0 0 0 0 0 0 0 0.25 0"/>
<feBlend mode="normal" in2="BackgroundImageFix" result="effect1_dropShadow_13781_3046"/>
<feBlend mode="normal" in="SourceGraphic" in2="effect1_dropShadow_13781_3046" result="shape"/>
</filter>
<clipPath id="clip0_13781_3046">
<path d="M1 3.5C1 2.39543 1.89543 1.5 3 1.5H15C16.1046 1.5 17 2.39543 17 3.5V8.5C17 9.60457 16.1046 10.5 15 10.5H3C1.89543 10.5 1 9.60457 1 8.5V3.5Z" fill="white"/>
</clipPath>
</defs>
</svg>
