<svg width="18" height="12" viewBox="0 0 18 12" fill="none" xmlns="http://www.w3.org/2000/svg">
<g filter="url(#filter0_d_13781_5917)">
<g clip-path="url(#clip0_13781_5917)">
<path d="M17 1.5H1V10.5H17V1.5Z" fill="#DE2910"/>
<path d="M8.99999 5.99837C7.42083 5.33087 8.12083 3.2742 9.63166 3.37754C9.32582 3.53504 9.28249 3.82754 9.45582 4.0992C9.65082 4.40337 9.43749 4.89087 9.17416 5.01087C8.73916 5.2067 8.65166 5.7267 8.99999 5.99837Z" fill="white"/>
<path d="M8.91413 4.51337L8.8258 4.65254L8.79413 4.49087L8.6333 4.4492L8.77747 4.36837L8.76663 4.20337L8.8883 4.31587L9.04246 4.25587L8.9733 4.40587L9.0783 4.53337L8.91413 4.51337Z" fill="#DE2910"/>
<path d="M9.00935 5.98175C8.81851 5.88425 8.66435 5.67842 8.59685 5.43592C8.52018 5.15509 8.56352 4.85509 8.71852 4.61092L8.68518 4.59009C8.52602 4.84342 8.47935 5.15592 8.55935 5.44675C8.63018 5.70509 8.78768 5.91342 8.99101 6.01842L9.00935 5.98175Z" fill="#DE2910"/>
<path d="M9.00171 5.99822C9.14838 4.28989 11.3209 4.32156 11.6884 5.78822C11.445 5.54656 11.1525 5.59489 10.9492 5.84406C10.7209 6.12322 10.19 6.07239 9.99504 5.85739C9.67337 5.50656 9.15171 5.58406 9.00171 5.99822Z" fill="white"/>
<path d="M10.3874 5.4584L10.2266 5.41673L10.3707 5.3359L10.3599 5.1709L10.4816 5.2834L10.6357 5.2234L10.5666 5.3734L10.6716 5.5009L10.5082 5.48173L10.4199 5.6209L10.3874 5.4584Z" fill="#DE2910"/>
<path d="M9.021 6.00178C9.05517 5.79011 9.20267 5.58011 9.41433 5.44095C9.65767 5.28178 9.95767 5.23095 10.236 5.30178L10.2452 5.26428C9.95433 5.19095 9.6435 5.24345 9.39183 5.41011C9.1685 5.55678 9.0185 5.77178 8.98267 5.99678L9.021 6.00178Z" fill="#DE2910"/>
<path d="M9.00171 6.00006C10.6709 5.61173 11.3134 7.68756 10.0309 8.49173C10.185 8.1859 10.0492 7.92173 9.74921 7.80506C9.41337 7.67423 9.29754 7.15256 9.44171 6.90173C9.67837 6.48923 9.44087 6.01673 9.00171 6.00006Z" fill="white"/>
<path d="M9.94334 7.15157L9.93251 6.98657L10.0542 7.09907L10.2083 7.03907L10.1392 7.18907L10.2442 7.31657L10.0808 7.29741L9.99251 7.43657L9.95917 7.27491L9.79834 7.23324L9.94334 7.15157Z" fill="#DE2910"/>
<path d="M9.00408 6.01912C9.21575 5.98579 9.46158 6.06079 9.65825 6.21829C9.88492 6.39996 10.0257 6.66996 10.0449 6.95746L10.0841 6.95412C10.0649 6.65579 9.91742 6.37496 9.68242 6.18746C9.47408 6.01912 9.22325 5.94412 8.99658 5.97912L9.00408 6.01912Z" fill="#DE2910"/>
<path d="M8.99981 6.00171C9.8848 7.47004 8.11064 8.72087 6.94897 7.75087C7.28814 7.80337 7.49647 7.59171 7.51481 7.27088C7.53564 6.91088 7.99481 6.63921 8.27814 6.69921C8.74481 6.79504 9.12147 6.42421 8.99981 6.00171Z" fill="white"/>
<path d="M8.19567 7.25254L8.34984 7.19254L8.28067 7.34253L8.38567 7.47004L8.22067 7.45087L8.13317 7.59003L8.10151 7.42837L7.94067 7.3867L8.08484 7.30587L8.07401 7.14087L8.19567 7.25254Z" fill="#DE2910"/>
<path d="M8.98182 6.01077C9.07932 6.20243 9.08349 6.45743 8.99349 6.69493C8.89182 6.9666 8.67849 7.1841 8.41016 7.2916L8.42516 7.32744C8.70432 7.2166 8.92432 6.98994 9.03099 6.70827C9.12516 6.45743 9.12099 6.1966 9.01766 5.99243L8.98182 6.01077Z" fill="#DE2910"/>
<path d="M8.99846 6.00009C7.87679 7.29592 6.13679 5.99425 6.7018 4.59009C6.75763 4.92925 7.02096 5.06092 7.33346 4.98009C7.68263 4.88842 8.08179 5.24259 8.11346 5.53092C8.1643 6.00342 8.63429 6.24592 8.99846 6.00009Z" fill="white"/>
<path d="M7.55983 5.62159L7.66483 5.74909L7.50149 5.72992L7.41316 5.86909L7.37983 5.70742L7.21899 5.66575L7.36316 5.58492L7.35233 5.41992L7.47399 5.53242L7.62816 5.47242L7.55983 5.62159Z" fill="#DE2910"/>
<path d="M8.98485 5.98661C8.83319 6.13828 8.59069 6.22077 8.33819 6.20994C8.04902 6.19661 7.77569 6.06161 7.59152 5.83911L7.56152 5.86494C7.75319 6.09578 8.03736 6.23577 8.33736 6.24911C8.60402 6.26077 8.85152 6.17578 9.01402 6.01494L8.98485 5.98661Z" fill="#DE2910"/>
</g>
</g>
<defs>
<filter id="filter0_d_13781_5917" x="0" y="0.5" width="18" height="11" filterUnits="userSpaceOnUse" color-interpolation-filters="sRGB">
<feFlood flood-opacity="0" result="BackgroundImageFix"/>
<feColorMatrix in="SourceAlpha" type="matrix" values="0 0 0 0 0 0 0 0 0 0 0 0 0 0 0 0 0 0 127 0" result="hardAlpha"/>
<feOffset/>
<feGaussianBlur stdDeviation="0.5"/>
<feComposite in2="hardAlpha" operator="out"/>
<feColorMatrix type="matrix" values="0 0 0 0 0 0 0 0 0 0 0 0 0 0 0 0 0 0 0.25 0"/>
<feBlend mode="normal" in2="BackgroundImageFix" result="effect1_dropShadow_13781_5917"/>
<feBlend mode="normal" in="SourceGraphic" in2="effect1_dropShadow_13781_5917" result="shape"/>
</filter>
<clipPath id="clip0_13781_5917">
<path d="M1 3.5C1 2.39543 1.89543 1.5 3 1.5H15C16.1046 1.5 17 2.39543 17 3.5V8.5C17 9.60457 16.1046 10.5 15 10.5H3C1.89543 10.5 1 9.60457 1 8.5V3.5Z" fill="white"/>
</clipPath>
</defs>
</svg>
