<svg width="18" height="12" viewBox="0 0 18 12" fill="none" xmlns="http://www.w3.org/2000/svg">
<g filter="url(#filter0_d_13781_5349)">
<g clip-path="url(#clip0_13781_5349)">
<path d="M17 1.5H1V10.5H17V1.5Z" fill="white"/>
<path d="M9.00005 8.70005C10.4912 8.70005 11.7 7.49122 11.7 6.00005C11.7 4.50888 10.4912 3.30005 9.00005 3.30005C7.50888 3.30005 6.30005 4.50888 6.30005 6.00005C6.30005 7.49122 7.50888 8.70005 9.00005 8.70005Z" fill="#BC002D"/>
</g>
</g>
<defs>
<filter id="filter0_d_13781_5349" x="0" y="0.5" width="18" height="11" filterUnits="userSpaceOnUse" color-interpolation-filters="sRGB">
<feFlood flood-opacity="0" result="BackgroundImageFix"/>
<feColorMatrix in="SourceAlpha" type="matrix" values="0 0 0 0 0 0 0 0 0 0 0 0 0 0 0 0 0 0 127 0" result="hardAlpha"/>
<feOffset/>
<feGaussianBlur stdDeviation="0.5"/>
<feComposite in2="hardAlpha" operator="out"/>
<feColorMatrix type="matrix" values="0 0 0 0 0 0 0 0 0 0 0 0 0 0 0 0 0 0 0.25 0"/>
<feBlend mode="normal" in2="BackgroundImageFix" result="effect1_dropShadow_13781_5349"/>
<feBlend mode="normal" in="SourceGraphic" in2="effect1_dropShadow_13781_5349" result="shape"/>
</filter>
<clipPath id="clip0_13781_5349">
<path d="M1 3.5C1 2.39543 1.89543 1.5 3 1.5H15C16.1046 1.5 17 2.39543 17 3.5V8.5C17 9.60457 16.1046 10.5 15 10.5H3C1.89543 10.5 1 9.60457 1 8.5V3.5Z" fill="white"/>
</clipPath>
</defs>
</svg>
