<svg width="24" height="14" viewBox="0 0 24 14" fill="none" xmlns="http://www.w3.org/2000/svg">
<g clip-path="url(#clip0_1300_205)">
<path d="M24 0H0V13.5H24V0Z" fill="#ED2939"/>
<path d="M24 6.75H0V13.5H24V6.75Z" fill="white"/>
<path d="M6.94466 3.37518C6.94466 4.77768 5.80841 5.91393 4.40591 5.91393C3.00341 5.91393 1.86841 4.77768 1.86841 3.37518C1.86841 1.97268 3.00466 0.836426 4.40716 0.836426C5.80966 0.836426 6.94466 1.97268 6.94466 3.37518Z" fill="white"/>
<path d="M7.74278 3.37482C7.74278 4.69982 6.66903 5.77357 5.34403 5.77357C4.01903 5.77357 2.94653 4.69982 2.94653 3.37482C2.94653 2.04982 4.02028 0.976074 5.34403 0.976074C6.66778 0.976074 7.74278 2.04982 7.74278 3.37482Z" fill="#ED2939"/>
<path d="M4.72138 3.43629L4.37638 3.17254L4.03138 3.43754L4.16388 3.01129L3.81763 2.74754L4.24513 2.74879L4.37638 2.32129L4.50763 2.74879L4.93513 2.74754L4.58888 3.01004L4.72138 3.43629Z" fill="white"/>
<path d="M7.42743 3.43629L7.08243 3.17254L6.73743 3.43629L6.86993 3.01004L6.52368 2.74754L6.95118 2.74879L7.08243 2.32129L7.21368 2.74879L7.64118 2.74754L7.29493 3.01004L7.42743 3.43629Z" fill="white"/>
<path d="M6.07514 2.4326L5.73014 2.16885L5.38514 2.43385L5.51764 2.0076L5.17139 1.7451L5.59889 1.74635L5.73014 1.31885L5.86139 1.74635L6.28889 1.7451L5.94264 2.0076L6.07514 2.4326Z" fill="white"/>
<path d="M5.22772 5.04246L4.88272 4.77746L4.53772 5.04371L4.67022 4.61746L4.32397 4.35496L4.75147 4.35621L4.88272 3.92871L5.01397 4.35621L5.44147 4.35496L5.09522 4.61746L5.22772 5.04246Z" fill="white"/>
<path d="M6.92133 5.04273L6.57633 4.77773L6.23133 5.04273L6.36383 4.61648L6.01758 4.35398L6.44508 4.35523L6.57633 3.92773L6.70758 4.35523L7.13508 4.35398L6.78883 4.61648L6.92133 5.04273Z" fill="white"/>
<path fill-rule="evenodd" clip-rule="evenodd" d="M2 0.3C1.06112 0.3 0.3 1.06112 0.3 2V11.5C0.3 12.4389 1.06112 13.2 2 13.2H22C22.9389 13.2 23.7 12.4389 23.7 11.5V2C23.7 1.06112 22.9389 0.3 22 0.3H2ZM0 2C0 0.89543 0.89543 0 2 0H22C23.1046 0 24 0.89543 24 2V11.5C24 12.6046 23.1046 13.5 22 13.5H2C0.89543 13.5 0 12.6046 0 11.5V2Z" fill="#C7CFD5"/>
</g>
<defs>
<clipPath id="clip0_1300_205">
<rect width="24" height="13.5" rx="2" fill="white"/>
</clipPath>
</defs>
</svg>
