<svg width="18" height="12" viewBox="0 0 18 12" fill="none" xmlns="http://www.w3.org/2000/svg">
<g filter="url(#filter0_d_13781_6521)">
<g clip-path="url(#clip0_13781_6521)">
<path d="M17 1.5H1V10.5H17V1.5Z" fill="#B22234"/>
<path d="M1 2.53833H17H1ZM17 3.92333H1H17ZM1 5.3075H17H1ZM17 6.6925H1H17ZM1 8.07667H17H1ZM17 9.46167H1H17Z" fill="black"/>
<path d="M17 9.80763H1V9.11513H17V9.80763ZM17 8.42346H1V7.73096H17V8.42346ZM17 7.03846H1V6.34596H17V7.03846ZM17 5.65429H1V4.96179H17V5.65429ZM17 4.26929H1V3.57679H17V4.26929ZM17 2.88513H1V2.19263H17V2.88513Z" fill="white"/>
<path d="M7.84 1.5H1V6.34583H7.84V1.5Z" fill="#3C3B6E"/>
<path d="M1.57091 1.70752L1.73424 2.20835L1.30591 1.89919H1.83174L1.40674 2.20919L1.57091 1.70752Z" fill="white"/>
<path d="M1.57081 2.67651L1.73414 3.17735L1.30664 2.86735H1.83247L1.40581 3.17735L1.57081 2.67651Z" fill="white"/>
<path d="M1.57095 3.64575L1.73428 4.14659L1.30762 3.83659H1.83345L1.40678 4.14659L1.57095 3.64575Z" fill="white"/>
<path d="M1.57095 4.61499L1.73428 5.11666L1.30762 4.80666H1.83345L1.40678 5.11666L1.57095 4.61499Z" fill="white"/>
<path d="M1.57095 5.58496L1.73428 6.08579L1.30762 5.77579H1.83345L1.40678 6.08579L1.57095 5.58496Z" fill="white"/>
<path d="M2.13921 2.19263L2.30254 2.69346L1.87671 2.38346H2.40254L1.97754 2.69346L2.13921 2.19263Z" fill="white"/>
<path d="M2.13931 3.16162L2.30264 3.66245L1.87598 3.35245H2.40181L1.97514 3.66245L2.13931 3.16162Z" fill="white"/>
<path d="M2.13931 4.13086L2.30264 4.63169L1.87598 4.32169H2.40181L1.97514 4.63169L2.13931 4.13086Z" fill="white"/>
<path d="M2.13931 5.1001L2.30264 5.60093L1.87598 5.29093H2.40181L1.97514 5.60093L2.13931 5.1001Z" fill="white"/>
<path d="M2.71011 1.70752L2.87344 2.20835L2.44678 1.89835H2.97261L2.54594 2.20835L2.71011 1.70752Z" fill="white"/>
<path d="M2.71011 2.67651L2.87344 3.17735L2.44678 2.86735H2.97261L2.54594 3.17735L2.71011 2.67651Z" fill="white"/>
<path d="M2.71011 3.64575L2.87344 4.14659L2.44678 3.83659H2.97261L2.54594 4.14659L2.71011 3.64575Z" fill="white"/>
<path d="M2.71011 4.61499L2.87344 5.11582L2.44678 4.80582H2.97261L2.54678 5.11666L2.71011 4.61499Z" fill="white"/>
<path d="M2.71011 5.58496L2.87344 6.08579L2.44678 5.77579H2.97261L2.54594 6.08579L2.71011 5.58496Z" fill="white"/>
<path d="M3.28091 2.19263L3.44425 2.69346L3.01758 2.38346H3.54341L3.11674 2.69346L3.28091 2.19263Z" fill="white"/>
<path d="M3.28091 3.16162L3.44425 3.66245L3.01758 3.35245H3.54341L3.11674 3.66245L3.28091 3.16162Z" fill="white"/>
<path d="M3.28091 4.13086L3.44425 4.63169L3.01758 4.32169H3.54341L3.11674 4.63169L3.28091 4.13086Z" fill="white"/>
<path d="M3.28091 5.1001L3.44425 5.60093L3.01758 5.29093H3.54341L3.11674 5.60093L3.28091 5.1001Z" fill="white"/>
<path d="M3.84927 1.70752L4.0126 2.20835L3.58594 1.89835H4.11177L3.6851 2.20835L3.84927 1.70752Z" fill="white"/>
<path d="M3.84927 2.67651L4.0126 3.17735L3.58594 2.86735H4.11177L3.6851 3.17735L3.84927 2.67651Z" fill="white"/>
<path d="M3.84927 3.64575L4.0126 4.14659L3.58594 3.83659H4.11177L3.6851 4.14659L3.84927 3.64575Z" fill="white"/>
<path d="M3.84927 4.61499L4.0126 5.11582L3.58594 4.80582H4.11177L3.68594 5.11666L3.84927 4.61499Z" fill="white"/>
<path d="M3.84927 5.58496L4.0126 6.08579L3.58594 5.77579H4.11177L3.6851 6.08579L3.84927 5.58496Z" fill="white"/>
<path d="M4.41983 2.19263L4.58316 2.69346L4.15649 2.38346H4.68316L4.25649 2.69346L4.41983 2.19263Z" fill="white"/>
<path d="M4.41983 3.16162L4.58316 3.66245L4.15649 3.35245H4.68316L4.25649 3.66245L4.41983 3.16162Z" fill="white"/>
<path d="M4.41983 4.13086L4.58316 4.63169L4.15649 4.32169H4.68316L4.25649 4.63169L4.41983 4.13086Z" fill="white"/>
<path d="M4.41983 5.1001L4.58316 5.60093L4.15649 5.29093H4.68316L4.25649 5.60093L4.41983 5.1001Z" fill="white"/>
<path d="M4.99063 1.70752L5.15396 2.20835L4.72729 1.89835H5.25313L4.82646 2.20835L4.99063 1.70752Z" fill="white"/>
<path d="M4.99063 2.67651L5.15396 3.17735L4.72729 2.86735H5.25313L4.82646 3.17735L4.99063 2.67651Z" fill="white"/>
<path d="M4.99063 3.64575L5.15396 4.14659L4.72729 3.83659H5.25313L4.82646 4.14659L4.99063 3.64575Z" fill="white"/>
<path d="M4.99063 4.61499L5.15396 5.11582L4.72729 4.80582H5.25313L4.82646 5.11666L4.99063 4.61499Z" fill="white"/>
<path d="M4.99063 5.58496L5.15396 6.08579L4.72729 5.77579H5.25313L4.82646 6.08579L4.99063 5.58496Z" fill="white"/>
<path d="M5.55913 2.19263L5.72247 2.69346L5.29663 2.38346H5.82247L5.3958 2.69346L5.55913 2.19263Z" fill="white"/>
<path d="M5.55899 3.16162L5.72232 3.66245L5.29565 3.35245H5.82149L5.39482 3.66245L5.55899 3.16162Z" fill="white"/>
<path d="M5.55899 4.13086L5.72232 4.63169L5.29565 4.32169H5.82149L5.39482 4.63169L5.55899 4.13086Z" fill="white"/>
<path d="M5.55899 5.1001L5.72232 5.60093L5.29565 5.29093H5.82149L5.39482 5.60093L5.55899 5.1001Z" fill="white"/>
<path d="M6.13028 1.70752L6.29361 2.20835L5.86694 1.89919H6.39278L5.96694 2.20919L6.13028 1.70752Z" fill="white"/>
<path d="M6.13028 2.67651L6.29361 3.17735L5.86694 2.86818H6.39278L5.96694 3.17818L6.13028 2.67651Z" fill="white"/>
<path d="M6.13028 3.64575L6.29361 4.14659L5.86694 3.83742H6.39278L5.96694 4.14742L6.13028 3.64575Z" fill="white"/>
<path d="M6.13028 4.61499L6.29361 5.11582L5.86694 4.80666H6.39278L5.96694 5.11666L6.13028 4.61499Z" fill="white"/>
<path d="M6.13028 5.58496L6.29361 6.08579L5.86694 5.77579H6.39278L5.96694 6.08579L6.13028 5.58496Z" fill="white"/>
<path d="M6.70083 2.19263L6.86417 2.69346L6.4375 2.38346H6.96333L6.53667 2.69346L6.70083 2.19263Z" fill="white"/>
<path d="M6.70083 3.16162L6.86417 3.66245L6.4375 3.35245H6.96333L6.53667 3.66245L6.70083 3.16162Z" fill="white"/>
<path d="M6.70083 4.13086L6.86417 4.63169L6.4375 4.32169H6.96333L6.53667 4.63169L6.70083 4.13086Z" fill="white"/>
<path d="M6.70083 5.1001L6.86417 5.60093L6.4375 5.29093H6.96333L6.53667 5.60093L6.70083 5.1001Z" fill="white"/>
<path d="M7.26909 1.70752L7.43326 2.20919L7.00659 1.89919H7.53243L7.10576 2.20919L7.26909 1.70752Z" fill="white"/>
<path d="M7.26944 2.67651L7.43277 3.17735L7.0061 2.86735H7.53194L7.10527 3.17735L7.26944 2.67651Z" fill="white"/>
<path d="M7.26944 3.64575L7.43277 4.14659L7.0061 3.83659H7.53194L7.10527 4.14659L7.26944 3.64575Z" fill="white"/>
<path d="M7.26909 4.61499L7.43326 5.11666L7.00659 4.80666H7.53243L7.10576 5.11666L7.26909 4.61499Z" fill="white"/>
<path d="M7.26944 5.58496L7.43277 6.08579L7.0061 5.77579H7.53194L7.10527 6.08579L7.26944 5.58496Z" fill="white"/>
</g>
</g>
<defs>
<filter id="filter0_d_13781_6521" x="0" y="0.5" width="18" height="11" filterUnits="userSpaceOnUse" color-interpolation-filters="sRGB">
<feFlood flood-opacity="0" result="BackgroundImageFix"/>
<feColorMatrix in="SourceAlpha" type="matrix" values="0 0 0 0 0 0 0 0 0 0 0 0 0 0 0 0 0 0 127 0" result="hardAlpha"/>
<feOffset/>
<feGaussianBlur stdDeviation="0.5"/>
<feComposite in2="hardAlpha" operator="out"/>
<feColorMatrix type="matrix" values="0 0 0 0 0 0 0 0 0 0 0 0 0 0 0 0 0 0 0.25 0"/>
<feBlend mode="normal" in2="BackgroundImageFix" result="effect1_dropShadow_13781_6521"/>
<feBlend mode="normal" in="SourceGraphic" in2="effect1_dropShadow_13781_6521" result="shape"/>
</filter>
<clipPath id="clip0_13781_6521">
<path d="M1 3.5C1 2.39543 1.89543 1.5 3 1.5H15C16.1046 1.5 17 2.39543 17 3.5V8.5C17 9.60457 16.1046 10.5 15 10.5H3C1.89543 10.5 1 9.60457 1 8.5V3.5Z" fill="white"/>
</clipPath>
</defs>
</svg>
